<svg width="484" height="140" viewBox="0 0 484 140" fill="none" xmlns="http://www.w3.org/2000/svg">
<path d="M281.553 21.9129C281.495 21.9841 281.419 22.0326 281.336 22.0515C281.253 22.0704 281.167 22.0587 281.09 22.018C278.86 20.7633 276.428 20.0502 273.947 19.9235C265.821 19.5159 258.85 28.3061 258.766 37.3724C258.532 46.3641 266.031 54.5365 273.935 51.7364C281.174 50.3736 291.812 46.7366 297.8 53.1824C298.057 53.4979 297.644 53.9931 297.361 53.6776C289.464 46.7497 277.381 55.1456 268.658 55.242C252.598 54.2604 248.919 26.9433 261.546 17.6492C267.76 12.6582 277.293 14.056 281.579 21.3564C281.632 21.4383 281.658 21.5386 281.653 21.6401C281.648 21.7417 281.613 21.8381 281.553 21.9129Z" fill="white"/>
<path d="M185.737 53.6207C185.738 53.5154 185.768 53.4132 185.823 53.3289C185.878 53.2446 185.955 53.1825 186.043 53.1518C188.337 52.3718 190.544 51.6357 192.693 50.8206C196.478 49.4304 200.134 47.6178 203.61 45.4089C221.503 34.2963 226.695 4.65682 248.786 1.05924C256.779 -0.570844 265.229 1.39665 271.837 6.84341C276.078 10.5462 280.732 15.9622 281.638 21.8647C275.336 14.3716 267.348 7.10194 257.253 7.4043C230.714 8.15361 230.328 38.6958 207.056 49.9092C200.482 53.1387 193.267 54.221 186.162 54.1377C186.104 54.1379 186.046 54.1244 185.993 54.098C185.939 54.0717 185.891 54.0331 185.852 53.9846C185.812 53.9362 185.781 53.8788 185.761 53.8162C185.742 53.7536 185.734 53.6871 185.737 53.6207Z" fill="white"/>
<path d="M272.947 48.0813C269.284 49.8035 264.741 47.24 262.596 43.5723C260.198 39.6812 260.087 34.3177 261.888 30.0935C263.831 25.2733 269.001 21.5005 273.551 23.1787C273.55 23.2094 273.539 23.2383 273.52 23.2596C273.5 23.2808 273.475 23.2927 273.448 23.2927C272.052 23.284 270.669 23.5938 269.379 24.2041C258.775 29.0988 260.963 48.4713 272.947 48.0813Z" fill="white"/>
<path d="M483.618 95.6211V99.2821H471.822C471.697 101.744 471.603 104.216 471.54 106.698C471.499 109.18 471.467 111.569 471.446 113.864H482.742V117.525H471.446C471.446 119.11 471.457 120.779 471.478 122.531C471.499 124.263 471.53 126.036 471.572 127.851C471.613 129.645 471.665 131.459 471.728 133.295C471.791 135.11 471.874 136.883 471.978 138.615H466.127C466.252 136.841 466.346 135.027 466.409 133.17C466.492 131.293 466.555 129.436 466.596 127.6C466.638 125.744 466.669 123.929 466.69 122.156C466.711 120.382 466.721 118.693 466.721 117.087C466.721 115.48 466.711 113.791 466.69 112.017C466.669 110.244 466.638 108.44 466.596 106.604C466.555 104.768 466.492 102.922 466.409 101.066C466.346 99.2091 466.252 97.3942 466.127 95.6211H483.618Z" fill="white"/>
<path d="M447.293 95.6211C450.818 95.6211 453.54 96.6537 455.459 98.7189C457.399 100.784 458.369 103.913 458.369 108.106C458.369 110.818 457.9 113.06 456.961 114.834C456.023 116.586 454.635 117.931 452.8 118.87C453.259 120.664 453.832 122.615 454.521 124.721C455.126 126.536 455.877 128.633 456.774 131.011C457.692 133.389 458.808 135.924 460.122 138.615H453.519C452.581 135.506 451.798 132.805 451.173 130.51C450.568 128.195 450.088 126.255 449.733 124.69C449.316 122.875 448.993 121.321 448.763 120.028H442.411C442.411 121.488 442.422 123 442.443 124.565C442.484 126.109 442.526 127.673 442.568 129.259C442.609 130.823 442.662 132.398 442.724 133.984C442.787 135.569 442.86 137.113 442.943 138.615H437.092C437.217 136.841 437.311 135.027 437.373 133.17C437.457 131.293 437.519 129.436 437.561 127.6C437.603 125.744 437.634 123.929 437.655 122.156C437.676 120.382 437.686 118.693 437.686 117.087C437.686 115.48 437.676 113.791 437.655 112.017C437.634 110.244 437.603 108.44 437.561 106.604C437.519 104.768 437.457 102.922 437.373 101.066C437.311 99.2091 437.217 97.3942 437.092 95.6211H447.293ZM442.787 99.1257C442.641 102.109 442.536 105.102 442.474 108.106C442.432 111.089 442.411 113.905 442.411 116.555H446.98C447.918 116.555 448.753 116.409 449.483 116.117C450.213 115.824 450.828 115.345 451.329 114.677C451.851 114.01 452.247 113.144 452.518 112.08C452.789 110.995 452.925 109.671 452.925 108.106C452.925 104.935 452.424 102.651 451.423 101.253C450.443 99.8349 448.961 99.1257 446.98 99.1257H442.787Z" fill="white"/>
<path d="M416.379 135.642C417.547 135.642 418.559 135.412 419.414 134.954C420.27 134.495 420.979 133.837 421.542 132.982C422.105 132.127 422.523 131.084 422.794 129.853C423.086 128.602 423.232 127.204 423.232 125.66V115.553C423.232 112.382 423.19 109.128 423.107 105.791C423.044 102.432 422.898 99.0422 422.669 95.6211H428.551C428.363 99.0631 428.217 102.463 428.113 105.822C428.03 109.18 427.988 112.424 427.988 115.553V125.66C427.988 127.83 427.748 129.77 427.268 131.48C426.789 133.191 426.069 134.641 425.109 135.83C424.15 137.019 422.94 137.937 421.48 138.583C420.04 139.209 418.34 139.522 416.379 139.522C414.418 139.522 412.708 139.209 411.247 138.583C409.808 137.937 408.609 137.019 407.649 135.83C406.689 134.641 405.97 133.191 405.49 131.48C405.01 129.77 404.77 127.83 404.77 125.66V115.553C404.77 112.424 404.718 109.18 404.614 105.822C404.53 102.463 404.395 99.0631 404.207 95.6211H410.09C409.86 99.0422 409.704 102.432 409.62 105.791C409.558 109.128 409.526 112.382 409.526 115.553V125.66C409.526 127.204 409.662 128.602 409.933 129.853C410.204 131.084 410.622 132.127 411.185 132.982C411.748 133.837 412.457 134.495 413.313 134.954C414.189 135.412 415.211 135.642 416.379 135.642Z" fill="white"/>
<path d="M385.217 135.925C386.051 135.925 386.865 135.799 387.657 135.549C388.471 135.278 389.191 134.85 389.817 134.266C390.442 133.682 390.943 132.942 391.318 132.045C391.694 131.127 391.882 130.011 391.882 128.696C391.882 127.57 391.652 126.527 391.193 125.567C390.755 124.608 390.171 123.69 389.441 122.814C388.711 121.938 387.876 121.093 386.938 120.279C385.999 119.445 385.039 118.61 384.059 117.776C383.079 116.942 382.119 116.086 381.18 115.21C380.242 114.313 379.407 113.374 378.677 112.394C377.947 111.393 377.352 110.318 376.893 109.171C376.455 108.024 376.236 106.772 376.236 105.416C376.236 103.434 376.601 101.766 377.332 100.41C378.062 99.0537 378.99 97.9689 380.116 97.1554C381.243 96.3209 382.484 95.7264 383.84 95.3718C385.217 95.0172 386.552 94.8398 387.845 94.8398C389.201 94.8398 390.505 94.9546 391.757 95.184C393.029 95.3926 394.249 95.6221 395.418 95.8724V102.099C394.75 101.536 394.114 101.025 393.509 100.566C392.925 100.107 392.33 99.7212 391.725 99.4083C391.141 99.0745 390.536 98.8242 389.91 98.6573C389.285 98.4696 388.617 98.3757 387.908 98.3757C387.032 98.3757 386.197 98.5009 385.405 98.7512C384.633 98.9806 383.955 99.3457 383.371 99.8464C382.807 100.347 382.348 100.983 381.994 101.755C381.66 102.527 381.493 103.445 381.493 104.509C381.493 105.99 381.879 107.346 382.651 108.576C383.423 109.786 384.393 110.944 385.561 112.05C386.729 113.155 387.991 114.261 389.347 115.367C390.703 116.472 391.965 117.661 393.133 118.934C394.302 120.206 395.272 121.604 396.043 123.127C396.815 124.629 397.201 126.35 397.201 128.29C397.201 129.75 397.034 131.043 396.7 132.17C396.367 133.275 395.908 134.245 395.324 135.08C394.76 135.893 394.103 136.582 393.352 137.145C392.601 137.708 391.798 138.167 390.943 138.522C390.088 138.855 389.201 139.095 388.283 139.241C387.386 139.387 386.51 139.46 385.655 139.46C384.633 139.46 383.694 139.419 382.839 139.335C381.983 139.273 381.18 139.168 380.429 139.022C379.699 138.897 379.011 138.751 378.364 138.584C377.738 138.397 377.123 138.198 376.518 137.99V131.575C377.165 132.18 377.811 132.754 378.458 133.296C379.105 133.818 379.772 134.277 380.461 134.673C381.17 135.069 381.91 135.382 382.682 135.612C383.454 135.82 384.299 135.925 385.217 135.925Z" fill="white"/>
<path d="M344.043 95.6211C347.568 95.6211 350.29 96.6537 352.209 98.7189C354.149 100.784 355.119 103.913 355.119 108.106C355.119 110.818 354.65 113.06 353.711 114.834C352.773 116.586 351.385 117.931 349.55 118.87C350.009 120.664 350.582 122.615 351.271 124.721C351.876 126.536 352.627 128.633 353.524 131.011C354.442 133.389 355.558 135.924 356.872 138.615H350.269C349.331 135.506 348.548 132.805 347.923 130.51C347.318 128.195 346.838 126.255 346.483 124.69C346.066 122.875 345.743 121.321 345.513 120.028H339.161C339.161 121.488 339.172 123 339.193 124.565C339.234 126.109 339.276 127.673 339.318 129.259C339.359 130.823 339.412 132.398 339.474 133.984C339.537 135.569 339.61 137.113 339.693 138.615H333.842C333.967 136.841 334.061 135.027 334.123 133.17C334.207 131.293 334.269 129.436 334.311 127.6C334.353 125.744 334.384 123.929 334.405 122.156C334.426 120.382 334.436 118.693 334.436 117.087C334.436 115.48 334.426 113.791 334.405 112.017C334.384 110.244 334.353 108.44 334.311 106.604C334.269 104.768 334.207 102.922 334.123 101.066C334.061 99.2091 333.967 97.3942 333.842 95.6211H344.043ZM339.537 99.1257C339.391 102.109 339.286 105.102 339.224 108.106C339.182 111.089 339.161 113.905 339.161 116.555H343.73C344.668 116.555 345.503 116.409 346.233 116.117C346.963 115.824 347.578 115.345 348.079 114.677C348.601 114.01 348.997 113.144 349.268 112.08C349.539 110.995 349.675 109.671 349.675 108.106C349.675 104.935 349.174 102.651 348.173 101.253C347.193 99.8349 345.711 99.1257 343.73 99.1257H339.537Z" fill="white"/>
<path d="M325.522 95.6211V99.2821H313.068C312.943 101.681 312.849 104.08 312.786 106.479C312.745 108.857 312.713 111.173 312.692 113.426H324.614V117.087H312.692C312.692 119.778 312.713 122.667 312.755 125.754C312.797 128.821 312.891 131.887 313.037 134.954H325.709V138.615H307.373C307.498 136.841 307.592 135.027 307.655 133.17C307.738 131.293 307.801 129.436 307.842 127.6C307.884 125.744 307.915 123.929 307.936 122.156C307.957 120.382 307.968 118.693 307.968 117.087C307.968 115.48 307.957 113.791 307.936 112.017C307.915 110.244 307.884 108.44 307.842 106.604C307.801 104.768 307.738 102.922 307.655 101.066C307.592 99.2091 307.498 97.3942 307.373 95.6211H325.522Z" fill="white"/>
<path d="M288.789 132.294C290.228 126.223 291.469 120.163 292.512 114.114C293.576 108.044 294.577 101.879 295.516 95.6211H301.461C300.794 98.1661 300.137 100.774 299.49 103.444C298.843 106.114 298.228 108.784 297.644 111.454C297.06 114.103 296.496 116.721 295.954 119.308C295.433 121.874 294.942 124.336 294.483 126.693C294.045 129.029 293.639 131.209 293.263 133.233C292.888 135.256 292.564 137.05 292.293 138.615H284.877C284.606 137.05 284.283 135.256 283.907 133.233C283.532 131.209 283.114 129.029 282.656 126.693C282.217 124.336 281.727 121.874 281.185 119.308C280.663 116.721 280.111 114.103 279.526 111.454C278.942 108.784 278.327 106.114 277.68 103.444C277.034 100.774 276.377 98.1661 275.709 95.6211H281.654C282.593 101.879 283.584 108.044 284.627 114.114C285.67 120.163 286.911 126.223 288.35 132.294H288.789Z" fill="white"/>
<path d="M269.609 95.6211C269.484 97.3942 269.38 99.2091 269.296 101.066C269.234 102.922 269.182 104.768 269.14 106.604C269.098 108.44 269.067 110.244 269.046 112.017C269.025 113.791 269.015 115.48 269.015 117.087C269.015 118.693 269.025 120.382 269.046 122.156C269.067 123.929 269.098 125.744 269.14 127.6C269.182 129.436 269.234 131.293 269.296 133.17C269.359 135.027 269.442 136.841 269.547 138.615H263.695C263.82 136.841 263.914 135.027 263.977 133.17C264.06 131.293 264.123 129.436 264.165 127.6C264.206 125.744 264.238 123.929 264.259 122.156C264.279 120.382 264.29 118.693 264.29 117.087C264.29 115.48 264.279 113.791 264.259 112.017C264.238 110.244 264.206 108.44 264.165 106.604C264.123 104.768 264.06 102.922 263.977 101.066C263.914 99.2091 263.82 97.3942 263.695 95.6211H269.609Z" fill="white"/>
<path d="M244.673 95.6211C248.199 95.6211 250.921 96.6537 252.84 98.7189C254.78 100.784 255.75 103.913 255.75 108.106C255.75 110.818 255.281 113.06 254.342 114.834C253.404 116.586 252.016 117.931 250.181 118.87C250.64 120.664 251.213 122.615 251.902 124.721C252.507 126.536 253.258 128.633 254.155 131.011C255.072 133.389 256.188 135.924 257.503 138.615H250.9C249.962 135.506 249.179 132.805 248.553 130.51C247.949 128.195 247.469 126.255 247.114 124.69C246.697 122.875 246.374 121.321 246.144 120.028H239.792C239.792 121.488 239.803 123 239.823 124.565C239.865 126.109 239.907 127.673 239.949 129.259C239.99 130.823 240.042 132.398 240.105 133.984C240.168 135.569 240.241 137.113 240.324 138.615H234.473C234.598 136.841 234.692 135.027 234.754 133.17C234.838 131.293 234.9 129.436 234.942 127.6C234.984 125.744 235.015 123.929 235.036 122.156C235.057 120.382 235.067 118.693 235.067 117.087C235.067 115.48 235.057 113.791 235.036 112.017C235.015 110.244 234.984 108.44 234.942 106.604C234.9 104.768 234.838 102.922 234.754 101.066C234.692 99.2091 234.598 97.3942 234.473 95.6211H244.673ZM240.168 99.1257C240.022 102.109 239.917 105.102 239.855 108.106C239.813 111.089 239.792 113.905 239.792 116.555H244.361C245.299 116.555 246.134 116.409 246.864 116.117C247.594 115.824 248.209 115.345 248.71 114.677C249.231 114.01 249.628 113.144 249.899 112.08C250.17 110.995 250.306 109.671 250.306 108.106C250.306 104.935 249.805 102.651 248.804 101.253C247.823 99.8349 246.342 99.1257 244.361 99.1257H240.168Z" fill="white"/>
<path d="M207.536 138.615C207.244 136.612 206.941 134.63 206.628 132.669C206.315 130.708 206.002 128.748 205.689 126.787H195.52C195.186 128.748 194.863 130.708 194.55 132.669C194.258 134.63 193.966 136.612 193.674 138.615H187.729C188.396 136.09 189.053 133.493 189.7 130.823C190.347 128.132 190.962 125.462 191.546 122.813C192.13 120.143 192.683 117.525 193.204 114.959C193.747 112.372 194.237 109.911 194.675 107.574C195.134 105.217 195.551 103.027 195.927 101.003C196.302 98.9796 196.626 97.1856 196.897 95.6211H204.313C204.584 97.1856 204.907 98.9796 205.283 101.003C205.658 103.027 206.065 105.217 206.503 107.574C206.962 109.911 207.452 112.372 207.974 114.959C208.516 117.525 209.079 120.143 209.663 122.813C210.247 125.462 210.863 128.132 211.509 130.823C212.156 133.493 212.813 136.09 213.481 138.615H207.536ZM200.37 101.942C199.515 105.488 198.743 109.014 198.054 112.518C197.366 116.023 196.719 119.558 196.114 123.126H205.064C204.459 119.558 203.802 116.023 203.092 112.518C202.404 109.014 201.642 105.488 200.808 101.942H200.37Z" fill="white"/>
<path d="M165.422 103.475C165.172 105.311 164.9 107.313 164.608 109.483C164.337 111.632 164.055 113.832 163.763 116.085C163.471 118.317 163.179 120.549 162.887 122.781C162.595 124.993 162.324 127.1 162.074 129.102C161.823 131.084 161.594 132.899 161.385 134.547C161.198 136.174 161.052 137.53 160.947 138.615H153.531C153.302 137.05 153.031 135.256 152.718 133.233C152.426 131.209 152.092 129.029 151.717 126.693C151.362 124.336 150.966 121.874 150.527 119.308C150.089 116.721 149.62 114.103 149.119 111.454C148.64 108.784 148.129 106.114 147.586 103.444C147.044 100.774 146.491 98.1661 145.928 95.6211H151.967C152.76 101.879 153.563 108.044 154.376 114.114C155.211 120.163 156.118 126.223 157.099 132.294H157.537C158.016 129.269 158.465 126.244 158.882 123.22C159.32 120.195 159.727 117.16 160.102 114.114C160.499 111.047 160.885 107.981 161.26 104.914C161.636 101.827 162.022 98.7293 162.418 95.6211H168.864C169.636 101.858 170.387 108.023 171.117 114.114C171.868 120.205 172.733 126.265 173.714 132.294H174.152C175.132 126.223 176.04 120.163 176.874 114.114C177.709 108.044 178.522 101.879 179.315 95.6211H185.354C184.791 98.1661 184.238 100.774 183.696 103.444C183.153 106.114 182.632 108.784 182.131 111.454C181.651 114.103 181.192 116.721 180.754 119.308C180.316 121.874 179.909 124.336 179.534 126.693C179.179 129.029 178.846 131.209 178.533 133.233C178.22 135.256 177.959 137.05 177.75 138.615H170.334C170.23 137.53 170.074 136.174 169.865 134.547C169.677 132.899 169.458 131.084 169.208 129.102C168.958 127.1 168.687 124.993 168.394 122.781C168.102 120.549 167.81 118.317 167.518 116.085C167.226 113.832 166.934 111.632 166.642 109.483C166.35 107.313 166.089 105.311 165.86 103.475H165.422Z" fill="white"/>
<path d="M137.575 138.615C137.283 136.612 136.98 134.63 136.667 132.669C136.354 130.708 136.041 128.748 135.728 126.787H125.559C125.225 128.748 124.902 130.708 124.589 132.669C124.297 134.63 124.005 136.612 123.713 138.615H117.768C118.435 136.09 119.092 133.493 119.739 130.823C120.386 128.132 121.001 125.462 121.585 122.813C122.169 120.143 122.722 117.525 123.243 114.959C123.786 112.372 124.276 109.911 124.714 107.574C125.173 105.217 125.59 103.027 125.966 101.003C126.341 98.9796 126.665 97.1856 126.936 95.6211H134.352C134.623 97.1856 134.946 98.9796 135.322 101.003C135.697 103.027 136.104 105.217 136.542 107.574C137.001 109.911 137.491 112.372 138.013 114.959C138.555 117.525 139.118 120.143 139.702 122.813C140.286 125.462 140.902 128.132 141.549 130.823C142.195 133.493 142.852 136.09 143.52 138.615H137.575ZM130.409 101.942C129.554 105.488 128.782 109.014 128.094 112.518C127.405 116.023 126.758 119.558 126.153 123.126H135.103C134.498 119.558 133.841 116.023 133.131 112.518C132.443 109.014 131.682 105.488 130.847 101.942H130.409Z" fill="white"/>
<path d="M97.7745 95.6211C100.007 95.6211 102.051 95.9653 103.907 96.6537C105.764 97.3421 107.349 98.5207 108.664 100.19C109.999 101.838 111.031 104.038 111.761 106.792C112.512 109.545 112.888 112.977 112.888 117.087C112.888 121.217 112.512 124.669 111.761 127.444C111.031 130.197 109.999 132.409 108.664 134.077C107.329 135.725 105.733 136.894 103.876 137.582C102.02 138.27 99.9648 138.615 97.7119 138.615H87.9805C88.1056 136.841 88.1995 135.027 88.2621 133.17C88.3455 131.293 88.4081 129.436 88.4498 127.6C88.4916 125.744 88.5228 123.929 88.5437 122.156C88.5646 120.382 88.575 118.693 88.575 117.087C88.575 115.48 88.5646 113.791 88.5437 112.017C88.5228 110.244 88.4916 108.44 88.4498 106.604C88.4081 104.768 88.3455 102.922 88.2621 101.066C88.1995 99.2091 88.1056 97.3942 87.9805 95.6211H97.7745ZM93.6754 99.1882C93.5294 102.276 93.4251 105.363 93.3625 108.45C93.3208 111.517 93.2999 114.396 93.2999 117.087C93.2999 119.778 93.3208 122.677 93.3625 125.785C93.4042 128.873 93.4981 131.95 93.6441 135.016H97.837C98.734 135.016 99.5893 134.922 100.403 134.734C101.237 134.526 101.999 134.171 102.687 133.671C103.396 133.17 104.043 132.492 104.627 131.637C105.211 130.761 105.701 129.665 106.098 128.351C106.515 127.016 106.828 125.431 107.037 123.595C107.266 121.738 107.381 119.569 107.381 117.087C107.381 114.604 107.266 112.445 107.037 110.609C106.828 108.753 106.515 107.167 106.098 105.853C105.701 104.518 105.211 103.423 104.627 102.568C104.043 101.712 103.396 101.034 102.687 100.534C101.999 100.033 101.237 99.6889 100.403 99.5011C99.5893 99.2925 98.734 99.1882 97.837 99.1882H93.6754Z" fill="white"/>
<path d="M79.1302 95.6211C79.005 97.3942 78.9007 99.2091 78.8173 101.066C78.7547 102.922 78.7026 104.768 78.6608 106.604C78.6191 108.44 78.5878 110.244 78.567 112.017C78.5461 113.791 78.5357 115.48 78.5357 117.087C78.5357 118.693 78.5461 120.382 78.567 122.156C78.5878 123.929 78.6191 125.744 78.6608 127.6C78.7026 129.436 78.7547 131.293 78.8173 133.17C78.8799 135.027 78.9633 136.841 79.0676 138.615H73.2788C72.2149 135.548 71.1719 132.628 70.1498 129.853C69.1276 127.079 68.1054 124.398 67.0833 121.811C66.082 119.204 65.0807 116.669 64.0794 114.208C63.0781 111.725 62.0767 109.264 61.0754 106.823H60.8564C60.8147 108.638 60.7938 110.411 60.7938 112.143C60.8147 113.853 60.8251 115.501 60.8251 117.087C60.8251 118.693 60.8355 120.382 60.8564 122.156C60.8773 123.929 60.9086 125.744 60.9503 127.6C60.992 129.436 61.0442 131.293 61.1067 133.17C61.1693 135.027 61.2528 136.841 61.3571 138.615H55.6309C55.756 136.841 55.8499 135.027 55.9125 133.17C55.9959 131.293 56.0585 129.436 56.1002 127.6C56.1419 125.744 56.1732 123.929 56.1941 122.156C56.215 120.382 56.2254 118.693 56.2254 117.087C56.2254 115.48 56.215 113.791 56.1941 112.017C56.1732 110.244 56.1419 108.44 56.1002 106.604C56.0585 104.768 55.9959 102.922 55.9125 101.066C55.8499 99.2091 55.756 97.3942 55.6309 95.6211H61.4822C63.5891 101.754 65.6543 107.543 67.6778 112.987C69.7013 118.432 71.7247 123.595 73.7482 128.476H73.9672C73.9881 127.558 73.9985 126.599 73.9985 125.598C73.9985 124.596 73.9881 123.605 73.9672 122.625C73.9672 121.624 73.9568 120.654 73.9359 119.715C73.9359 118.776 73.9359 117.9 73.9359 117.087C73.9359 115.48 73.9255 113.791 73.9046 112.017C73.8838 110.244 73.8525 108.44 73.8108 106.604C73.769 104.768 73.7065 102.922 73.623 101.066C73.5604 99.2091 73.4666 97.3942 73.3414 95.6211H79.1302Z" fill="white"/>
<path d="M43.7738 138.615C43.4818 136.612 43.1793 134.63 42.8664 132.669C42.5535 130.708 42.2406 128.748 41.9277 126.787H31.7582C31.4244 128.748 31.1011 130.708 30.7882 132.669C30.4961 134.63 30.2041 136.612 29.912 138.615H23.9668C24.6343 136.09 25.2914 133.493 25.9381 130.823C26.5848 128.132 27.2002 125.462 27.7843 122.813C28.3684 120.143 28.9212 117.525 29.4427 114.959C29.985 112.372 30.4753 109.911 30.9133 107.574C31.3723 105.217 31.7895 103.027 32.165 101.003C32.5405 98.9796 32.8638 97.1856 33.135 95.6211H40.5509C40.8221 97.1856 41.1454 98.9796 41.5209 101.003C41.8964 103.027 42.3032 105.217 42.7412 107.574C43.2002 109.911 43.6904 112.372 44.2119 114.959C44.7543 117.525 45.3175 120.143 45.9016 122.813C46.4857 125.462 47.1011 128.132 47.7477 130.823C48.3944 133.493 49.0515 136.09 49.7191 138.615H43.7738ZM36.6082 101.942C35.753 105.488 34.9811 109.014 34.2927 112.518C33.6043 116.023 32.9577 119.558 32.3527 123.126H41.3019C40.6969 119.558 40.0398 116.023 39.3305 112.518C38.6421 109.014 37.8807 105.488 37.0463 101.942H36.6082Z" fill="white"/>
<path d="M10.4511 95.6211C12.2034 95.6211 13.7679 95.9236 15.1447 96.5285C16.5215 97.1126 17.6793 97.9783 18.618 99.1257C19.5776 100.273 20.2972 101.671 20.777 103.319C21.2777 104.967 21.528 106.834 21.528 108.92C21.528 109.817 21.4446 110.776 21.2777 111.798C21.1108 112.8 20.8396 113.791 20.4641 114.771C20.0886 115.751 19.6089 116.701 19.0248 117.618C18.4407 118.515 17.721 119.308 16.8657 119.997C16.0313 120.685 15.0508 121.238 13.9244 121.655C12.8188 122.051 11.5567 122.249 10.1382 122.249H5.31942C5.36114 124.92 5.41329 127.652 5.47588 130.448C5.55932 133.222 5.68448 135.944 5.85136 138.615H0C0.125163 136.841 0.219035 135.027 0.281616 133.17C0.365058 131.293 0.42764 129.436 0.469361 127.6C0.511082 125.744 0.542372 123.929 0.563233 122.156C0.584093 120.382 0.594524 118.693 0.594524 117.087C0.594524 115.48 0.584093 113.791 0.563233 112.017C0.542372 110.244 0.511082 108.44 0.469361 106.604C0.42764 104.768 0.365058 102.922 0.281616 101.066C0.219035 99.2091 0.125163 97.3942 0 95.6211H10.4511ZM5.69491 99.1257C5.54889 102.213 5.44459 105.3 5.382 108.388C5.34028 111.475 5.31942 114.375 5.31942 117.087V118.776H10.1382C12.0156 118.776 13.4759 117.921 14.5189 116.21C15.5619 114.479 16.0834 112.049 16.0834 108.92C16.0834 105.728 15.5932 103.298 14.6128 101.629C13.6323 99.9601 12.1408 99.1257 10.1382 99.1257H5.69491Z" fill="white"/>
</svg>
