<svg width="212" height="35" fill="none" xmlns="http://www.w3.org/2000/svg"><path d="M26.73 17.902l-.275-.26.293-.242-.018.502z" fill="#fff"/><path d="M26.836 18.312l-.41-.287.466-.207-.056.494z" fill="#fff"/><path d="M26.908 18.736l-.54-.333.635-.151-.095.484z" fill="#fff"/><path d="M26.945 19.171l-.666-.396.797-.076-.13.472z" fill="#fff"/><path d="M26.947 19.615l-.783-.478.95.02-.167.458z" fill="#fff"/><path d="M26.91 20.067l-.89-.575 1.089.134-.2.441zm-.078.459l-.984-.688 1.215.264-.231.424zm-.119.463l-1.065-.815 1.326.411-.261.404zm-.162.461l-1.13-.954 1.42.572-.29.383zm-.206.462l-1.177-1.105 1.492.746-.315.36zm-.246.453l-1.206-1.267 1.545.931-.339.336zm-.289.446l-1.216-1.436 1.575 1.126-.36.31zm-.333.435l-1.204-1.613 1.583 1.329-.379.284zm-.372.418l-1.17-1.795 1.566 1.538-.396.257zm-.413.397l-1.112-1.979 1.522 1.75-.41.23zm-.451.377l-1.03-2.165 1.452 1.965-.422.2zm-.488.353l-.925-2.35 1.355 2.178-.43.172zm-.524.325l-.793-2.532 1.23 2.389-.437.143zm-.559.291l-.637-2.708 1.08 2.595-.442.113zm-.592.263l-.457-2.877.903 2.792-.446.085zm-.622.223l-.255-3.036.7 2.98-.445.056zm-.652.187l-.03-3.183.473 3.155-.443.027zm-.677.149l.212-3.317.226 3.316h-.438zm-.697.106l.475-3.435-.044 3.46-.431-.025zm-.713.062l.76-3.536-.337 3.587-.423-.051zm-.727.016l1.067-3.616-.654 3.693-.413-.077zm-.734-.033l1.389-3.675-.99 3.776-.4-.1zm-.74-.08l1.726-3.71-1.341 3.835-.385-.124zm-.745-.128l2.076-3.723-1.706 3.868-.37-.145zm-.74-.181l2.435-3.708-2.083 3.874-.352-.166zm-.736-.23l2.8-3.667-2.467 3.852-.333-.185zm-.725-.281l3.17-3.6-2.856 3.802-.314-.202zm-.71-.332l3.54-3.503-3.248 3.72-.293-.217zm-.694-.381l3.912-3.378-3.641 3.61-.271-.232zm-.668-.427l4.28-3.225-4.032 3.468-.248-.244zm-.638-.478l4.641-3.04-4.416 3.295-.226-.255zm-.608-.522l4.996-2.826-4.795 3.09-.201-.264zm-.572-.567l5.339-2.582-5.162 2.853-.177-.271zm-.53-.611l5.668-2.306-5.515 2.583-.153-.277zm-.486-.648l5.98-2.002-5.851 2.283-.129-.281zm-.435-.689l6.27-1.669-6.166 1.953-.104-.284zm-.387-.723l6.538-1.309-6.458 1.594-.08-.285zm-.33-.754l6.778-.924-6.722 1.208-.056-.284zm-.27-.781l6.99-.518-6.956.8-.034-.282zm-.211-.808l7.17-.095-7.158.373-.012-.278zm-.148-.829l7.317.344-7.327-.071.01-.273zm-.083-.844l7.428.805-7.458-.538.03-.267zm-.015-.856l7.502 1.286-7.553-1.026.05-.26zm.054-.867l7.534 1.782-7.603-1.531.069-.25zm.125-.869l7.525 2.289-7.612-2.048.087-.24zm.196-.871l7.472 2.803-7.575-2.573.104-.23zm.27-.865l7.374 3.32-7.493-3.102.119-.218zm.342-.852l7.233 3.84-7.366-3.634.133-.206zm.413-.838l7.046 4.354-7.192-4.16.146-.194zm.484-.818l6.814 4.863L8.512 9.43l.157-.18zm.553-.795l6.536 5.363-6.703-5.197.167-.166zm.621-.765l6.215 5.85-6.39-5.699.175-.152zm.687-.731l5.847 6.325-6.03-6.188.183-.137zm.752-.693l5.433 6.782-5.621-6.66.188-.122zm.813-.651l4.975 7.22-5.168-7.112.193-.108zm.87-.605l4.474 7.632-4.67-7.539.196-.093zm.927-.553l3.93 8.018-4.127-7.94.197-.078zm.979-.5l3.344 8.373-3.541-8.308.197-.065zm1.027-.437l2.72 8.694L15.7 3.57l.197-.05zm1.068-.375l2.062 8.979-2.256-8.942.194-.037zm1.106-.313l1.376 9.223-1.567-9.199.191-.024zm1.136-.242l.667 9.424-.854-9.412.187-.012zm1.162-.17l-.061 9.582-.122-9.582h.182zm1.182-.101l-.808 9.695.632-9.705.176.01zm1.201-.027l-1.581 9.76 1.412-9.78.169.02zm1.212.048l-2.373 9.774 2.212-9.803.161.03zm1.218.13l-3.18 9.737 3.027-9.775.153.038zm1.216.205l-3.99 9.646 3.846-9.692.144.046zm1.206.286l-4.802 9.5 4.667-9.553.135.053zm1.189.366l-5.608 9.302 5.483-9.361.125.059zm1.166.44l-6.405 9.05 6.29-9.114.115.064zm1.14.516l-7.188 8.746 7.082-8.814.105.068zm1.1.593l-7.95 8.39 7.855-8.461.096.07zm1.064.664l-8.692 7.98 8.606-8.053.086.073zm1.016.734l-9.407 7.52 9.33-7.595.076.075zm.962.803l-10.092 7.01 10.025-7.085.067.075zm.904.869l-10.742 6.45L36.09 7.87l.057.075zm.841.933l-11.354 5.84 11.306-5.914.048.074zm.772.991l-11.925 5.182 11.885-5.255.04.072zm.696 1.048l-12.447 4.48 12.415-4.55.032.07zm.618 1.096l-12.919 3.738 12.894-3.805.025.067zm.533 1.143l-13.333 2.957 13.315-3.02.018.063zm.444 1.182l-13.687 2.144 13.675-2.204.012.06zm.348 1.216L26.422 16.86l13.97-1.361.006.055zm.256 1.239l-14.2.45 14.198-.5.002.05z" fill="#fff"/><path d="M13.925 17.012l.275.259-.294.242.019-.501z" fill="#fff"/><path d="M13.819 16.6l.41.287-.467.207.057-.494z" fill="#fff"/><path d="M13.745 16.176l.541.333-.636.151.095-.484z" fill="#fff"/><path d="M13.71 15.742l.665.397-.797.075.131-.472z" fill="#fff"/><path d="M13.707 15.299l.783.478-.949-.02.166-.458z" fill="#fff"/><path d="M13.745 14.846l.89.575-1.09-.134.2-.441zm.078-.457l.984.688-1.215-.265.231-.423zm.12-.463l1.065.815-1.326-.411.261-.404zm.161-.463l1.13.955-1.42-.573.29-.382zm.206-.461l1.176 1.106-1.492-.747.315-.359zm.245-.455l1.207 1.267-1.545-.932.338-.335zm.291-.445l1.216 1.436-1.576-1.126.36-.31zm.332-.434l1.203 1.613-1.582-1.33.379-.283zm.372-.418l1.17 1.794-1.566-1.537.396-.257zm.412-.398l1.113 1.979-1.522-1.75.41-.23zm.45-.377l1.03 2.165-1.452-1.965.422-.2zm.49-.354l.924 2.35-1.355-2.178.43-.172zm.525-.324l.793 2.531-1.232-2.388.439-.143zm.557-.291l.637 2.708-1.08-2.595.443-.113zm.592-.262l.457 2.877-.902-2.792.445-.085zm.624-.224l.254 3.035-.7-2.98.445-.055zm.65-.188l.03 3.183-.474-3.155.443-.028zm.676-.148L20.314 12l-.226-3.316h.438zm.699-.105l-.475 3.434.044-3.46.431.026zm.714-.062l-.761 3.535.338-3.587.423.052zm.725-.017l-1.066 3.617.654-3.693.412.077zm.735.033l-1.39 3.675.99-3.776.4.1zm.74.079l-1.727 3.711 1.341-3.835.386.124zm.744.129l-2.076 3.723 1.706-3.868.37.145zm.741.181L23.19 12.63l2.082-3.874.352.166zm.736.23l-2.8 3.667 2.467-3.852.333.185zm.725.28l-3.169 3.6 2.856-3.802.313.202zm.712.332l-3.541 3.504 3.248-3.721.293.217zm.691.38l-3.912 3.378 3.641-3.61.27.232zm.666.43l-4.279 3.224 4.031-3.468.248.244zm.642.476l-4.642 3.04 4.417-3.295.225.255zm.606.524L25.406 14.4l4.795-3.09.201.264zm.572.566l-5.34 2.582 5.162-2.853.178.271zm.53.61l-5.668 2.306 5.515-2.583.153.277zm.486.65l-5.98 2.002 5.85-2.283.13.281zm.437.687l-6.27 1.669 6.165-1.953.105.284zm.384.723l-6.538 1.31 6.458-1.595.08.285zm.331.755l-6.779.925 6.722-1.209.057.284zm.27.781l-6.99.519 6.956-.8.034.281zm.211.809l-7.17.095 7.158-.373.012.278zm.149.828l-7.317-.344 7.327.071-.01.273zm.082.844l-7.428-.806 7.459.539-.031.267zm.015.857l-7.502-1.286 7.552 1.027-.05.26zm-.053.867L26.28 18.77l7.604 1.53-.07.251zm-.125.869l-7.525-2.29 7.612 2.049-.087.24zm-.198.87l-7.472-2.804 7.576 2.573-.104.23zm-.269.863l-7.374-3.321 7.493 3.102-.119.219zm-.341.854l-7.233-3.839 7.366 3.633-.133.206zm-.413.839l-7.046-4.354 7.191 4.161-.145.193zm-.484.818L25.172 20.8l6.97 4.683-.156.18zm-.555.795l-6.537-5.363 6.704 5.197-.167.166zm-.621.763l-6.214-5.85 6.39 5.699-.176.151zm-.686.732l-5.847-6.325 6.03 6.188-.183.137zm-.751.694l-5.434-6.783 5.622 6.66-.188.123zm-.813.649l-4.976-7.219 5.168 7.111-.192.108zm-.871.606l-4.474-7.631 4.669 7.538-.195.093zm-.926.552l-3.929-8.017 4.126 7.939-.197.078zm-.98.5l-3.344-8.373 3.541 8.309-.197.064zm-1.026.439l-2.72-8.695 2.916 8.644-.196.05zm-1.07.376l-2.062-8.979 2.257 8.942-.195.037zm-1.104.31l-1.376-9.223 1.567 9.199-.191.024zm-1.138.24l-.666-9.424.853 9.413-.187.012zm-1.16.174l.06-9.582.122 9.582h-.182zm-1.183.101l.807-9.695-.632 9.706-.175-.01zm-1.202.026l1.581-9.76-1.412 9.78-.169-.02zm-1.21-.048l2.373-9.774-2.212 9.804-.162-.03zm-1.22-.13l3.18-9.736-3.026 9.775-.153-.039zm-1.214-.206l3.99-9.645-3.846 9.691-.144-.046zm-1.206-.285l4.803-9.5-4.667 9.553-.135-.053zm-1.19-.365l5.608-9.302-5.483 9.361-.126-.059zm-1.167-.441l6.406-9.05-6.29 9.114-.116-.064zm-1.138-.516l7.187-8.745-7.082 8.814-.105-.068zm-1.102-.592l7.95-8.39-7.854 8.46-.096-.07zm-1.063-.663l8.692-7.98-8.606 8.054-.085-.074zm-1.015-.735l9.406-7.52-9.33 7.595-.076-.075zm-.963-.804l10.091-7.01-10.024 7.086-.067-.076zm-.904-.869l10.742-6.45-10.685 6.525-.057-.075zm-.84-.932l11.355-5.84L3.716 26.11l-.048-.074zm-.772-.991l11.925-5.183-11.885 5.255-.04-.072zM2.2 23.997l12.447-4.481-12.416 4.55-.032-.07zm-.62-1.099l12.918-3.738-12.893 3.805-.025-.067zm-.531-1.143L14.382 18.8 1.067 21.82l-.018-.064zm-.444-1.181l13.687-2.144L.617 20.633l-.012-.06zm-.349-1.215l13.976-1.306-13.97 1.36-.006-.054zM0 18.118l14.2-.45-14.198.5-.002-.05zm139.387 9.509c.675 0 1.238.218 1.688.655.457.436.686.982.686 1.637s-.229 1.2-.686 1.637c-.45.437-1.013.655-1.688.655h-1.678v2.58h-.891v-7.164h2.569zm-.051 3.715c.436 0 .795-.133 1.074-.4.287-.272.43-.614.43-1.023 0-.41-.143-.747-.43-1.013-.279-.273-.638-.41-1.074-.41h-1.627v2.846h1.627zm-7.189 3.571c-.812 0-1.488-.263-2.027-.788-.532-.525-.798-1.194-.798-2.006v-4.492h.911v4.431c0 .587.177 1.064.532 1.433.355.361.815.542 1.382.542.552 0 1.006-.18 1.361-.542.354-.369.532-.846.532-1.433v-4.431h.911v4.492c0 .812-.267 1.48-.799 2.006-.532.525-1.2.788-2.005.788zm-5.273-1.054c-.709.702-1.606 1.054-2.691 1.054-1.078 0-1.972-.352-2.681-1.054-.71-.703-1.064-1.583-1.064-2.64 0-1.065.354-1.948 1.064-2.65.709-.71 1.603-1.065 2.681-1.065 1.085 0 1.982.351 2.691 1.054.71.703 1.064 1.586 1.064 2.65 0 1.065-.354 1.948-1.064 2.65zm-4.717-.635c.539.54 1.214.809 2.026.809.819 0 1.494-.266 2.026-.799.539-.538.808-1.214.808-2.026 0-.811-.269-1.483-.808-2.016-.532-.539-1.207-.808-2.026-.808-.812 0-1.487.27-2.026.808-.532.54-.799 1.211-.799 2.016 0 .805.267 1.477.799 2.016zm-3.648 1.566l-1.638-2.804h-1.637v2.804h-.89v-7.163h2.712c.675 0 1.231.208 1.668.624.443.41.665.931.665 1.566 0 .498-.144.934-.43 1.31-.287.368-.669.62-1.146.757l1.709 2.906h-1.013zm-3.275-6.314v2.661h1.781c.429 0 .781-.123 1.054-.368.273-.253.409-.573.409-.962 0-.39-.136-.706-.409-.952-.273-.253-.625-.379-1.054-.379h-1.781zm-6.17 2.763h3.838c-.021 1.077-.365 1.961-1.034 2.65-.661.682-1.511 1.023-2.548 1.023-1.05 0-1.92-.348-2.609-1.044-.682-.702-1.023-1.589-1.023-2.66 0-1.064.341-1.944 1.023-2.64.689-.703 1.552-1.054 2.589-1.054.573 0 1.105.112 1.596.337.498.219.911.526 1.238.921.335.396.553.846.655 1.351h-.921a2.211 2.211 0 00-.522-.9 2.452 2.452 0 00-.9-.614 2.929 2.929 0 00-1.126-.215c-.518 0-.985.12-1.402.358-.409.239-.73.573-.962 1.003a3.01 3.01 0 00-.348 1.453c0 .832.25 1.511.748 2.036.504.526 1.159.788 1.964.788.437 0 .836-.082 1.198-.245.368-.164.672-.393.91-.686a2.4 2.4 0 00.502-1.013h-2.866v-.85zm-6.417-3.612v.84h-2.18v6.323h-.9v-6.324h-2.18v-.839h5.26zm-7.35 7.163v-7.163h.89v7.163h-.89zm-4.347-.839h3.153v.84H90.06v-7.164h.89v6.324zm-3.43-.092c-.709.702-1.606 1.054-2.69 1.054-1.079 0-1.972-.352-2.682-1.054-.71-.703-1.064-1.583-1.064-2.64 0-1.065.355-1.948 1.064-2.65.71-.71 1.603-1.065 2.681-1.065 1.085 0 1.982.351 2.692 1.054.71.703 1.064 1.586 1.064 2.65 0 1.065-.355 1.948-1.064 2.65zm-4.717-.635c.54.54 1.215.809 2.026.809.819 0 1.494-.266 2.027-.799.538-.538.808-1.214.808-2.026 0-.811-.27-1.483-.808-2.016-.533-.539-1.208-.808-2.027-.808-.811 0-1.487.27-2.026.808-.532.54-.798 1.211-.798 2.016 0 .805.266 1.477.798 2.016zm-5.991 1.678c-1.064 0-1.944-.348-2.64-1.044-.689-.696-1.033-1.579-1.033-2.65s.344-1.955 1.033-2.65c.696-.696 1.576-1.044 2.64-1.044.546 0 1.051.105 1.515.317.47.205.866.498 1.187.88.328.382.556.829.686 1.34h-.911a2.44 2.44 0 00-.942-1.217c-.436-.294-.948-.44-1.535-.44-.805 0-1.466.266-1.985.798-.511.525-.767 1.2-.767 2.026 0 .819.255 1.49.767 2.016.519.525 1.18.788 1.985.788.6 0 1.123-.154 1.566-.46.444-.314.757-.747.942-1.3h.92c-.204.812-.617 1.456-1.238 1.934-.614.47-1.344.706-2.19.706zm-7.818-.972h3.275v.86h-4.166v-7.163h4.053v.85h-3.162v2.22h2.896v.829h-2.896v2.405zm-4.549-6.303l-2.64 4.308v2.855h-.921v-2.855l-2.63-4.308h.982l2.108 3.459 2.119-3.459h.982zm-7.83 3.449c.334.143.596.371.788.685.19.314.286.665.286 1.054 0 .56-.208 1.03-.624 1.412-.416.376-.931.563-1.545.563h-2.866v-7.163h2.825c.586 0 1.067.174 1.443.522.382.348.573.784.573 1.31 0 .32-.082.63-.246.93-.157.301-.368.53-.634.687zm-.031-1.495c0-.204-.051-.388-.154-.552a.971.971 0 00-.399-.379 1.153 1.153 0 00-.573-.143h-1.924v2.149h1.934c.314 0 .577-.102.788-.307a1.03 1.03 0 00.328-.768zM55.509 33.9c.355 0 .652-.113.89-.338.24-.225.359-.508.359-.85 0-.333-.12-.613-.358-.838a1.248 1.248 0 00-.89-.338h-1.976V33.9h1.975z" fill="#fff"/><path stroke="#fff" d="M52.654 22.004h88.011"/><path d="M211.022 17.502h-5.759c-.172 0-.257-.127-.257-.38V.381c0-.255.085-.382.257-.382h5.759c.172 0 .257.127.257.381v.98c0 .254-.085.381-.257.381h-4.494c-.122 0-.183.082-.183.245v5.498c0 .164.061.245.183.245h3.926c.171 0 .257.127.257.381v.98c0 .254-.086.381-.257.381h-3.926c-.122 0-.183.082-.183.245v5.798c0 .163.061.245.183.245h4.494c.172 0 .257.127.257.381v.98c0 .254-.085.381-.257.381zm-11.208 0h-2.201c-.844 0-1.51-.354-1.999-1.061-.477-.708-.716-1.697-.716-2.967V4.028c0-1.27.239-2.259.716-2.966C196.103.354 196.769 0 197.613 0h2.201c.844 0 1.504.354 1.981 1.062.49.707.734 1.696.734 2.966v1.334c0 .254-.085.381-.257.381h-.825c-.171 0-.257-.127-.257-.38V4.11c0-1.579-.514-2.368-1.541-2.368h-1.889c-1.015 0-1.523.79-1.523 2.368v9.282c0 1.579.508 2.368 1.523 2.368h1.889c1.027 0 1.541-.79 1.541-2.368V12.14c0-.254.086-.381.257-.381h.825c.172 0 .257.127.257.38v1.335c0 1.27-.244 2.259-.734 2.967-.477.707-1.137 1.061-1.981 1.061zm-14.326 0h-.807c-.172 0-.257-.127-.257-.38V.381c0-.255.085-.382.257-.382h.752c.146 0 .244.073.293.218l5.063 13.201h.073V.381c0-.254.086-.381.257-.381h.807c.171 0 .257.127.257.381v16.74c0 .254-.086.381-.257.381h-.679c-.134 0-.262-.118-.385-.354l-5.044-13.065h-.073V17.12c0 .254-.086.381-.257.381zm-3.862 0h-5.76c-.171 0-.257-.127-.257-.38V.381c0-.255.086-.382.257-.382h5.76c.171 0 .257.127.257.381v.98c0 .254-.086.381-.257.381h-4.494c-.122 0-.184.082-.184.245v5.498c0 .164.062.245.184.245h3.925c.171 0 .257.127.257.381v.98c0 .254-.086.381-.257.381h-3.925c-.122 0-.184.082-.184.245v5.798c0 .163.062.245.184.245h4.494c.171 0 .257.127.257.381v.98c0 .254-.086.381-.257.381zm-14.688-1.742h3.082c1.027 0 1.541-.79 1.541-2.368V4.11c0-1.579-.514-2.368-1.541-2.368h-3.082c-.122 0-.183.082-.183.245v13.528c0 .163.061.245.183.245zm-1.522 1.361V.381c0-.254.086-.381.257-.381h4.512c.844 0 1.504.363 1.981 1.089.489.707.734 1.687.734 2.94v9.445c0 1.252-.245 2.24-.734 2.967-.477.707-1.137 1.061-1.981 1.061h-4.512c-.171 0-.257-.127-.257-.38zM162.423.381v16.74c0 .254-.086.381-.257.381h-.825c-.171 0-.257-.127-.257-.38V.381c0-.255.086-.382.257-.382h.825c.171 0 .257.127.257.381zm-11.734 13.093v-.871c0-.254.086-.381.257-.381h.826c.171 0 .256.127.256.38v.708c0 1.634.545 2.45 1.633 2.45h1.614c1.089 0 1.633-.835 1.633-2.504v-.925c0-1.307-.728-2.16-2.183-2.56a23.542 23.542 0 01-1.834-.57c-.612-.219-1.132-.636-1.56-1.253-.428-.635-.642-1.497-.642-2.586V4.03c0-1.253.239-2.233.716-2.94.489-.727 1.155-1.09 1.999-1.09h2.036c.832 0 1.492.363 1.981 1.089.489.707.734 1.687.734 2.94v.68c0 .272-.079.408-.238.408h-.844c-.159 0-.239-.136-.239-.408v-.49c0-1.651-.544-2.477-1.632-2.477h-1.559c-1.089 0-1.633.862-1.633 2.586v1.089c0 .925.41 1.56 1.229 1.905.367.145.771.281 1.211.408.44.11.88.263 1.32.463.453.182.863.417 1.229.708.367.272.661.698.881 1.28.232.562.348 1.251.348 2.068v1.225c0 1.252-.244 2.24-.733 2.967-.489.707-1.15 1.061-1.981 1.061h-2.11c-.831 0-1.492-.354-1.981-1.061-.489-.726-.734-1.715-.734-2.967zm-2.667 4.028h-5.759c-.172 0-.257-.127-.257-.38V.381c0-.255.085-.382.257-.382h5.759c.172 0 .257.127.257.381v.98c0 .254-.085.381-.257.381h-4.494c-.122 0-.183.082-.183.245v5.498c0 .164.061.245.183.245h3.926c.171 0 .257.127.257.381v.98c0 .254-.086.381-.257.381h-3.926c-.122 0-.183.082-.183.245v5.798c0 .163.061.245.183.245h4.494c.172 0 .257.127.257.381v.98c0 .254-.085.381-.257.381zm-14.787 0h-.826c-.171 0-.257-.127-.257-.38V.381c0-.255.086-.382.257-.382h4.219c.844 0 1.51.363 1.999 1.089.49.707.734 1.687.734 2.94v2.476c0 1.017-.165 1.86-.495 2.532-.33.653-.789 1.089-1.376 1.306v.11l2.128 6.614c.11.29.049.435-.183.435h-.826c-.208 0-.361-.127-.458-.38l-2.055-6.588h-2.421c-.122 0-.184.082-.184.245v6.342c0 .254-.085.381-.256.381zm.44-8.628h2.77c1.051 0 1.577-.78 1.577-2.341V4.11c0-1.579-.526-2.368-1.577-2.368h-2.77c-.122 0-.184.082-.184.245v6.642c0 .163.062.245.184.245zm-15.939 8.628h-.917c-.159 0-.214-.127-.165-.38l3.43-16.74c.049-.255.165-.382.349-.382h1.32c.184 0 .3.127.349.381l3.43 16.74c.049.254-.006.381-.165.381h-.936c-.134 0-.22-.127-.256-.38l-.863-3.975h-4.439l-.862 3.974c-.049.254-.14.381-.275.381zm3.32-15.46l-1.889 9.418h3.852l-1.889-9.42h-.074zm-14.965 15.46h-1.413c-.171 0-.275-.127-.312-.38L102.018.381c-.036-.255.043-.382.239-.382h.99c.184 0 .282.127.294.381l1.853 14.998h.11L107.98.354c.037-.236.134-.354.293-.354h1.101c.159 0 .257.118.293.354l2.513 15.025h.111L114.125.41c.037-.273.14-.409.312-.409h.99c.196 0 .275.136.239.408l-2.367 16.713c-.036.254-.134.381-.293.381h-1.413c-.171 0-.275-.127-.311-.38l-2.403-14.618h-.074l-2.421 14.617c-.037.254-.134.381-.293.381zm-12.878 0h-.917c-.16 0-.214-.127-.166-.38L95.56.381c.05-.255.166-.382.35-.382h1.32c.183 0 .3.127.348.381l3.431 16.74c.048.254-.007.381-.166.381h-.935c-.135 0-.22-.127-.257-.38l-.862-3.975H94.35l-.862 3.974c-.049.254-.14.381-.275.381zm3.32-15.46l-1.89 9.418h3.853l-1.89-9.419h-.073zM84.395 15.76h3.082c1.027 0 1.541-.79 1.541-2.368V4.11c0-1.579-.514-2.368-1.54-2.368h-3.082c-.123 0-.184.082-.184.245v13.528c0 .163.061.245.183.245zm-1.522 1.361V.381c0-.254.086-.381.257-.381h4.512c.844 0 1.504.363 1.981 1.089.49.707.734 1.687.734 2.94v9.445c0 1.252-.245 2.24-.734 2.967-.477.707-1.137 1.061-1.98 1.061H83.13c-.171 0-.257-.127-.257-.38zm-9.594.381h-.807c-.172 0-.257-.127-.257-.38V.381c0-.255.085-.382.257-.382h.752c.147 0 .244.073.293.218l5.063 13.201h.073V.381c0-.254.086-.381.257-.381h.807c.171 0 .257.127.257.381v16.74c0 .254-.086.381-.257.381h-.679c-.134 0-.263-.118-.385-.354L73.61 4.083h-.073V17.12c0 .254-.086.381-.257.381zm-10.822 0h-.917c-.16 0-.214-.127-.165-.38l3.43-16.74c.049-.255.165-.382.348-.382h1.321c.183 0 .3.127.349.381l3.43 16.74c.049.254-.006.381-.165.381h-.936c-.134 0-.22-.127-.257-.38l-.862-3.975h-4.439l-.862 3.974c-.049.254-.14.381-.275.381zm3.32-15.46l-1.89 9.418h3.853l-1.89-9.42h-.073zm-12.041 15.46h-.825c-.171 0-.257-.127-.257-.38V.381c0-.255.086-.382.257-.382h4.292c.844 0 1.505.363 1.981 1.089.477.707.716 1.687.716 2.94v3.02c0 1.271-.239 2.26-.716 2.968-.476.708-1.137 1.061-1.98 1.061h-3.027c-.123 0-.184.082-.184.245v5.798c0 .254-.085.381-.257.381zm.44-8.193h2.844c1.027 0 1.54-.78 1.54-2.34V4.11c0-1.579-.513-2.368-1.54-2.368h-2.843c-.123 0-.184.082-.184.245v7.077c0 .163.061.245.184.245z" fill="#fff"/></svg>