<svg width="212" height="35" viewBox="0 0 212 35" fill="none" xmlns="http://www.w3.org/2000/svg">
<path d="M26.7298 17.9018L26.4551 17.6427L26.7484 17.4004L26.7298 17.9018Z" fill="white"/>
<path d="M26.8357 18.3123L26.4258 18.0253L26.8925 17.8184L26.8357 18.3123Z" fill="white"/>
<path d="M26.9083 18.7362L26.3672 18.4032L27.0027 18.252L26.9083 18.7362Z" fill="white"/>
<path d="M26.9455 19.1713L26.2793 18.7745L27.0764 18.6992L26.9455 19.1713Z" fill="white"/>
<path d="M26.947 19.6147L26.1641 19.1367L27.1132 19.1568L26.947 19.6147Z" fill="white"/>
<path d="M26.9091 20.0674L26.0195 19.4922L27.1089 19.6257L26.9091 20.0674Z" fill="white"/>
<path d="M26.8316 20.5259L25.8477 19.8379L27.0631 20.1023L26.8316 20.5259Z" fill="white"/>
<path d="M26.7127 20.9888L25.6484 20.1738L26.9743 20.585L26.7127 20.9888Z" fill="white"/>
<path d="M26.5512 21.4508L25.4219 20.4961L26.8404 21.0684L26.5512 21.4508Z" fill="white"/>
<path d="M26.3451 21.9124L25.168 20.8066L26.6601 21.5528L26.3451 21.9124Z" fill="white"/>
<path d="M26.099 22.3647L24.8926 21.0977L26.4376 22.0293L26.099 22.3647Z" fill="white"/>
<path d="M25.8096 22.8115L24.5938 21.375L26.1693 22.5013L25.8096 22.8115Z" fill="white"/>
<path d="M25.4773 23.2458L24.2734 21.6328L25.856 22.9618L25.4773 23.2458Z" fill="white"/>
<path d="M25.1051 23.6636L23.9355 21.8691L25.5005 23.4066L25.1051 23.6636Z" fill="white"/>
<path d="M24.6923 24.0611L23.5801 22.082L25.1019 23.832L24.6923 24.0611Z" fill="white"/>
<path d="M24.2414 24.4384L23.2109 22.2734L24.6631 24.2376L24.2414 24.4384Z" fill="white"/>
<path d="M23.7525 24.7913L22.8281 22.4414L24.1835 24.6194L23.7525 24.7913Z" fill="white"/>
<path d="M23.2287 25.1156L22.4355 22.584L23.6669 24.9728L23.2287 25.1156Z" fill="white"/>
<path d="M22.6706 25.4072L22.0332 22.6992L23.1135 25.2936L22.6706 25.4072Z" fill="white"/>
<path d="M22.0784 25.6698L21.6211 22.793L22.5236 25.5852L22.0784 25.6698Z" fill="white"/>
<path d="M21.4558 25.8932L21.2012 22.8574L21.901 25.8374L21.4558 25.8932Z" fill="white"/>
<path d="M20.8042 26.0794L20.7734 22.8965L21.2471 26.0515L20.8042 26.0794Z" fill="white"/>
<path d="M20.127 26.2287L20.3391 22.9121L20.5653 26.2279L20.127 26.2287Z" fill="white"/>
<path d="M19.4297 26.3351L19.9051 22.9004L19.8612 26.3609L19.4297 26.3351Z" fill="white"/>
<path d="M18.7168 26.3966L19.4775 22.8613L19.1397 26.4484L18.7168 26.3966Z" fill="white"/>
<path d="M17.9902 26.4131L19.0566 22.7969L18.4025 26.4899L17.9902 26.4131Z" fill="white"/>
<path d="M17.2559 26.3803L18.6449 22.7051L17.6555 26.4813L17.2559 26.3803Z" fill="white"/>
<path d="M16.5156 26.3008L18.242 22.5898L16.9009 26.4248L16.5156 26.3008Z" fill="white"/>
<path d="M15.7715 26.1715L17.8472 22.4492L16.1408 26.3173L15.7715 26.1715Z" fill="white"/>
<path d="M15.0312 25.9913L17.4656 22.2832L15.3831 26.1572L15.0312 25.9913Z" fill="white"/>
<path d="M14.2949 25.761L17.0946 22.0938L14.628 25.9458L14.2949 25.761Z" fill="white"/>
<path d="M13.5703 25.48L16.7396 21.8809L13.8836 25.682L13.5703 25.48Z" fill="white"/>
<path d="M12.8594 25.1476L16.4002 21.6445L13.1519 25.3652L12.8594 25.1476Z" fill="white"/>
<path d="M12.166 24.7669L16.0776 21.3887L12.4367 24.9986L12.166 24.7669Z" fill="white"/>
<path d="M11.498 24.3393L15.7776 21.1152L11.7462 24.5834L11.498 24.3393Z" fill="white"/>
<path d="M10.8594 23.8623L15.5012 20.8223L11.0845 24.1171L10.8594 23.8623Z" fill="white"/>
<path d="M10.252 23.3396L15.2478 20.5137L10.4533 23.6035L10.252 23.3396Z" fill="white"/>
<path d="M9.67969 22.7729L15.0186 20.1914L9.85699 23.0442L9.67969 22.7729Z" fill="white"/>
<path d="M9.15039 22.1619L14.8183 19.8555L9.30346 22.4392L9.15039 22.1619Z" fill="white"/>
<path d="M8.66406 21.5139L14.6435 19.5117L8.79273 21.7951L8.66406 21.5139Z" fill="white"/>
<path d="M8.22852 20.8254L14.4991 19.1562L8.33295 21.1092L8.22852 20.8254Z" fill="white"/>
<path d="M7.8418 20.1019L14.3798 18.793L7.92217 20.3868L7.8418 20.1019Z" fill="white"/>
<path d="M7.51172 19.3483L14.2903 18.4238L7.56837 19.6324L7.51172 19.3483Z" fill="white"/>
<path d="M7.24219 18.5672L14.232 18.0488L7.2758 18.8492L7.24219 18.5672Z" fill="white"/>
<path d="M7.03125 17.7588L14.2009 17.6641L7.04268 18.037L7.03125 17.7588Z" fill="white"/>
<path d="M6.88295 16.9297L14.1995 17.2744L6.87305 17.2029L6.88295 16.9297Z" fill="white"/>
<path d="M6.79991 16.0859L14.2283 16.8914L6.76953 16.3529L6.79991 16.0859Z" fill="white"/>
<path d="M6.78471 15.2305L14.2865 16.5162L6.73438 15.4898L6.78471 15.2305Z" fill="white"/>
<path d="M6.83881 14.3633L14.3733 16.1448L6.76953 14.6138L6.83881 14.3633Z" fill="white"/>
<path d="M6.96415 13.4941L14.4891 15.7827L6.87695 13.735L6.96415 13.4941Z" fill="white"/>
<path d="M7.16056 12.623L14.6324 15.4261L7.05664 12.8531L7.16056 12.623Z" fill="white"/>
<path d="M7.42983 11.7578L14.8044 15.0786L7.31055 11.9762L7.42983 11.7578Z" fill="white"/>
<path d="M7.77194 10.9062L15.0046 14.7452L7.63867 11.1123L7.77194 10.9062Z" fill="white"/>
<path d="M8.18496 10.0684L15.2306 14.4224L8.03906 10.2615L8.18496 10.0684Z" fill="white"/>
<path d="M8.66888 9.25L15.4826 14.1129L8.51172 9.42964L8.66888 9.25Z" fill="white"/>
<path d="M9.22158 8.45508L15.7582 13.818L9.05469 8.6209L9.22158 8.45508Z" fill="white"/>
<path d="M9.84339 7.68945L16.0575 13.5409L9.66797 7.841L9.84339 7.68945Z" fill="white"/>
<path d="M10.5301 6.95898L16.3766 13.2843L10.3477 7.09611L10.5301 6.95898Z" fill="white"/>
<path d="M11.2818 6.26562L16.7152 13.0479L11.0938 6.38817L11.2818 6.26562Z" fill="white"/>
<path d="M12.0948 5.61523L17.0704 12.8341L11.9023 5.72305L12.0948 5.61523Z" fill="white"/>
<path d="M12.9649 5.00977L17.4385 12.6415L12.7695 5.103L12.9649 5.00977Z" fill="white"/>
<path d="M13.8924 4.45703L17.8213 12.4748L13.6953 4.53569L13.8924 4.45703Z" fill="white"/>
<path d="M14.8711 3.95703L18.2145 12.3304L14.6738 4.02157L14.8711 3.95703Z" fill="white"/>
<path d="M15.8978 3.51953L18.6176 12.2142L15.7012 3.5701L15.8978 3.51953Z" fill="white"/>
<path d="M16.9658 3.14453L19.0284 12.1235L16.7715 3.18158L16.9658 3.14453Z" fill="white"/>
<path d="M18.072 2.83203L19.448 12.0549L17.8809 2.85633L18.072 2.83203Z" fill="white"/>
<path d="M19.2083 2.58984L19.8745 12.0142L19.0215 2.60184L19.2083 2.58984Z" fill="white"/>
<path d="M20.3692 2.41992L20.3086 12.002L20.1875 2.42038L20.3692 2.41992Z" fill="white"/>
<path d="M21.552 2.31892L20.7441 12.0137L21.3762 2.30859L21.552 2.31892Z" fill="white"/>
<path d="M22.7529 2.29198L21.1719 12.0518L22.5841 2.27148L22.7529 2.29198Z" fill="white"/>
<path d="M23.9652 2.34046L21.5918 12.1145L23.804 2.31055L23.9652 2.34046Z" fill="white"/>
<path d="M25.1828 2.47021L22.0039 12.2066L25.0297 2.43164L25.1828 2.47021Z" fill="white"/>
<path d="M26.3988 2.67522L22.4082 12.3205L26.2546 2.62891L26.3988 2.67522Z" fill="white"/>
<path d="M27.6051 2.9612L22.8027 12.4618L27.4701 2.9082L27.6051 2.9612Z" fill="white"/>
<path d="M28.7945 3.32665L23.1855 12.6287L28.6691 3.26758L28.7945 3.32665Z" fill="white"/>
<path d="M29.9601 3.76705L23.5547 12.8175L29.8444 3.70312L29.9601 3.76705Z" fill="white"/>
<path d="M31.0994 4.28287L23.9121 13.029L30.9937 4.21484L31.0994 4.28287Z" fill="white"/>
<path d="M32.2005 4.87591L24.25 13.2651L32.1048 4.80469L32.2005 4.87591Z" fill="white"/>
<path d="M33.2637 5.54014L24.5723 13.5208L33.1779 5.4668L33.2637 5.54014Z" fill="white"/>
<path d="M34.2793 6.27393L24.873 13.7947L34.2032 6.19922L34.2793 6.27393Z" fill="white"/>
<path d="M35.2415 7.07727L25.1504 14.0873L35.1749 7.00195L35.2415 7.07727Z" fill="white"/>
<path d="M36.1462 7.94611L25.4043 14.3954L36.0888 7.87109L36.1462 7.94611Z" fill="white"/>
<path d="M36.9875 8.87864L25.6328 14.7184L36.939 8.80469L36.9875 8.87864Z" fill="white"/>
<path d="M37.7589 9.86916L25.834 15.052L37.7188 9.79688L37.7589 9.86916Z" fill="white"/>
<path d="M38.4554 10.9175L26.0078 15.3983L38.4234 10.8477L38.4554 10.9175Z" fill="white"/>
<path d="M39.0727 12.0142L26.1543 15.7516L39.048 11.9473L39.0727 12.0142Z" fill="white"/>
<path d="M39.6062 13.1572L26.2734 16.1138L39.5881 13.0938L39.6062 13.1572Z" fill="white"/>
<path d="M40.0498 14.3387L26.3633 16.4825L40.0378 14.2793L40.0498 14.3387Z" fill="white"/>
<path d="M40.3985 15.5548L26.4219 16.8609L40.3918 15.5L40.3985 15.5548Z" fill="white"/>
<path d="M40.6539 16.7943L26.4531 17.2446L40.6517 16.7441L40.6539 16.7943Z" fill="white"/>
<path d="M13.9248 17.0117L14.1996 17.2708L13.9062 17.5131L13.9248 17.0117Z" fill="white"/>
<path d="M13.8187 16.5996L14.2286 16.8866L13.7617 17.0936L13.8187 16.5996Z" fill="white"/>
<path d="M13.7449 16.1758L14.286 16.5088L13.6504 16.66L13.7449 16.1758Z" fill="white"/>
<path d="M13.7092 15.7422L14.3752 16.139L13.5781 16.2144L13.7092 15.7422Z" fill="white"/>
<path d="M13.7072 15.2988L14.4901 15.7769L13.541 15.7568L13.7072 15.2988Z" fill="white"/>
<path d="M13.7447 14.8457L14.6341 15.4209L13.5449 15.2874L13.7447 14.8457Z" fill="white"/>
<path d="M13.8235 14.3887L14.8074 15.0767L13.5918 14.8122L13.8235 14.3887Z" fill="white"/>
<path d="M13.9431 13.9258L15.0075 14.7408L13.6816 14.3296L13.9431 13.9258Z" fill="white"/>
<path d="M14.1039 13.4629L15.2332 14.4176L13.8145 13.8453L14.1039 13.4629Z" fill="white"/>
<path d="M14.3091 13.002L15.4862 14.1077L13.9941 13.3615L14.3091 13.002Z" fill="white"/>
<path d="M14.5553 12.5469L15.7616 13.8139L14.2168 12.8823L14.5553 12.5469Z" fill="white"/>
<path d="M14.846 12.1016L16.0617 13.5381L14.4863 12.4118L14.846 12.1016Z" fill="white"/>
<path d="M15.1775 11.668L16.3814 13.2809L14.7988 11.9519L15.1775 11.668Z" fill="white"/>
<path d="M15.5495 11.25L16.7193 13.0444L15.1543 11.5069L15.5495 11.25Z" fill="white"/>
<path d="M15.9624 10.8516L17.0747 12.8306L15.5527 11.0807L15.9624 10.8516Z" fill="white"/>
<path d="M16.4119 10.4746L17.4424 12.6396L15.9902 10.6754L16.4119 10.4746Z" fill="white"/>
<path d="M16.9019 10.1211L17.8263 12.471L16.4707 10.293L16.9019 10.1211Z" fill="white"/>
<path d="M17.4265 9.79688L18.2196 12.3285L16.9883 9.93977L17.4265 9.79688Z" fill="white"/>
<path d="M17.984 9.50586L18.6212 12.2138L17.541 9.61944L17.984 9.50586Z" fill="white"/>
<path d="M18.5761 9.24414L19.0334 12.121L18.1309 9.32872L18.5761 9.24414Z" fill="white"/>
<path d="M19.1993 9.01953L19.4539 12.0553L18.7539 9.07541L19.1993 9.01953Z" fill="white"/>
<path d="M19.8491 8.83203L19.8799 12.015L19.4062 8.85997L19.8491 8.83203Z" fill="white"/>
<path d="M20.5261 8.68359L20.314 12.0002L20.0879 8.68435L20.5261 8.68359Z" fill="white"/>
<path d="M21.2254 8.57855L20.75 12.0133L20.7937 8.55273L21.2254 8.57855Z" fill="white"/>
<path d="M21.9386 8.51662L21.1777 12.0519L21.5158 8.46484L21.9386 8.51662Z" fill="white"/>
<path d="M22.6638 8.50066L21.5977 12.1168L22.2517 8.42383L22.6638 8.50066Z" fill="white"/>
<path d="M23.3988 8.53262L22.0098 12.2079L22.9991 8.43164L23.3988 8.53262Z" fill="white"/>
<path d="M24.1385 8.61234L22.4121 12.3233L23.7532 8.48828L24.1385 8.61234Z" fill="white"/>
<path d="M24.8825 8.74148L22.8066 12.4638L24.5131 8.5957L24.8825 8.74148Z" fill="white"/>
<path d="M25.6238 8.92183L23.1895 12.6299L25.272 8.75586L25.6238 8.92183Z" fill="white"/>
<path d="M26.3603 9.1516L23.5605 12.8188L26.027 8.9668L26.3603 9.1516Z" fill="white"/>
<path d="M27.0853 9.43243L23.916 13.0316L26.772 9.23047L27.0853 9.43243Z" fill="white"/>
<path d="M27.7967 9.76448L24.2559 13.2675L27.5042 9.54688L27.7967 9.76448Z" fill="white"/>
<path d="M28.4878 10.1438L24.5762 13.5221L28.217 9.91211L28.4878 10.1438Z" fill="white"/>
<path d="M29.1545 10.5741L24.875 13.7982L28.9062 10.3301L29.1545 10.5741Z" fill="white"/>
<path d="M29.7961 11.0497L25.1543 14.0898L29.571 10.7949L29.7961 11.0497Z" fill="white"/>
<path d="M30.402 11.5743L25.4062 14.4004L30.2006 11.3105L30.402 11.5743Z" fill="white"/>
<path d="M30.9736 12.1403L25.6348 14.7218L30.7962 11.8691L30.9736 12.1403Z" fill="white"/>
<path d="M31.5038 12.7499L25.8359 15.0564L31.3507 12.4727L31.5038 12.7499Z" fill="white"/>
<path d="M31.9892 13.4004L26.0098 15.4025L31.8606 13.1191L31.9892 13.4004Z" fill="white"/>
<path d="M32.4268 14.0867L26.1562 15.7557L32.3224 13.8027L32.4268 14.0867Z" fill="white"/>
<path d="M32.8114 14.8101L26.2734 16.1191L32.7312 14.5254L32.8114 14.8101Z" fill="white"/>
<path d="M33.1419 15.5654L26.3633 16.4898L33.0852 15.2812L33.1419 15.5654Z" fill="white"/>
<path d="M33.4119 16.3463L26.4219 16.8649L33.3781 16.0645L33.4119 16.3463Z" fill="white"/>
<path d="M33.6228 17.1551L26.4531 17.2499L33.6114 16.877L33.6228 17.1551Z" fill="white"/>
<path d="M33.7717 17.9834L26.4551 17.6387L33.7816 17.7102L33.7717 17.9834Z" fill="white"/>
<path d="M33.854 18.8269L26.4258 18.0215L33.8845 18.56L33.854 18.8269Z" fill="white"/>
<path d="M33.8689 19.6842L26.3672 18.3984L33.9193 19.4248L33.8689 19.6842Z" fill="white"/>
<path d="M33.8158 20.551L26.2812 18.7695L33.885 20.3005L33.8158 20.551Z" fill="white"/>
<path d="M33.691 21.4194L26.166 19.1309L33.7782 21.1786L33.691 21.4194Z" fill="white"/>
<path d="M33.4935 22.2894L26.0215 19.4863L33.5973 22.0593L33.4935 22.2894Z" fill="white"/>
<path d="M33.2242 23.153L25.8496 19.832L33.3433 22.9345L33.2242 23.153Z" fill="white"/>
<path d="M32.883 24.0069L25.6504 20.168L33.0163 23.8009L32.883 24.0069Z" fill="white"/>
<path d="M32.4696 24.8462L25.4238 20.4922L32.6155 24.6531L32.4696 24.8462Z" fill="white"/>
<path d="M31.9858 25.6637L25.1719 20.8008L32.1429 25.484L31.9858 25.6637Z" fill="white"/>
<path d="M31.4311 26.4586L24.8945 21.0957L31.5982 26.2928L31.4311 26.4586Z" fill="white"/>
<path d="M30.81 27.2224L24.5957 21.3711L30.9854 27.0708L30.81 27.2224Z" fill="white"/>
<path d="M30.1239 27.9543L24.2773 21.6289L30.3063 27.8171L30.1239 27.9543Z" fill="white"/>
<path d="M29.3729 28.6475L23.9395 21.8652L29.5609 28.525L29.3729 28.6475Z" fill="white"/>
<path d="M28.5597 29.297L23.584 22.0781L28.752 29.1892L28.5597 29.297Z" fill="white"/>
<path d="M27.6886 29.9032L23.2148 22.2715L27.8839 29.81L27.6886 29.9032Z" fill="white"/>
<path d="M26.7628 30.4552L22.834 22.4375L26.9598 30.3766L26.7628 30.4552Z" fill="white"/>
<path d="M25.7827 30.9553L22.4395 22.582L25.9801 30.8907L25.7827 30.9553Z" fill="white"/>
<path d="M24.757 31.3939L22.0371 22.6992L24.9534 31.3433L24.757 31.3939Z" fill="white"/>
<path d="M23.6874 31.77L21.625 22.791L23.8819 31.7329L23.6874 31.77Z" fill="white"/>
<path d="M22.5829 32.0803L21.207 22.8574L22.7742 32.056L22.5829 32.0803Z" fill="white"/>
<path d="M21.4453 32.3208L20.7793 22.8965L21.6323 32.3088L21.4453 32.3208Z" fill="white"/>
<path d="M20.2852 32.4941L20.3456 22.9121L20.4669 32.4936L20.2852 32.4941Z" fill="white"/>
<path d="M19.1016 32.5952L19.9092 22.9004L19.2772 32.6055L19.1016 32.5952Z" fill="white"/>
<path d="M17.9004 32.6211L19.4812 22.8613L18.0692 32.6416L17.9004 32.6211Z" fill="white"/>
<path d="M16.6895 32.573L19.0629 22.7988L16.8505 32.603L16.6895 32.573Z" fill="white"/>
<path d="M15.4707 32.4434L18.6496 22.707L15.6236 32.482L15.4707 32.4434Z" fill="white"/>
<path d="M14.2559 32.2371L18.2463 22.5918L14.4001 32.2834L14.2559 32.2371Z" fill="white"/>
<path d="M13.0508 31.9517L17.8532 22.4512L13.1856 32.0047L13.0508 31.9517Z" fill="white"/>
<path d="M11.8594 31.5873L17.4684 22.2852L11.9848 31.6463L11.8594 31.5873Z" fill="white"/>
<path d="M10.6934 31.1462L17.0987 22.0957L10.8089 31.2101L10.6934 31.1462Z" fill="white"/>
<path d="M9.55469 30.6308L16.7421 21.8848L9.66049 30.6988L9.55469 30.6308Z" fill="white"/>
<path d="M8.45312 30.0376L16.4037 21.6484L8.54885 30.1088L8.45312 30.0376Z" fill="white"/>
<path d="M7.39062 29.3752L16.0819 21.3945L7.47646 29.4486L7.39062 29.3752Z" fill="white"/>
<path d="M6.375 28.6399L15.7811 21.1191L6.45111 28.7146L6.375 28.6399Z" fill="white"/>
<path d="M5.41211 27.8362L15.503 20.8262L5.47866 27.9116L5.41211 27.8362Z" fill="white"/>
<path d="M4.50781 26.9669L15.2497 20.5176L4.56515 27.0419L4.50781 26.9669Z" fill="white"/>
<path d="M3.66797 26.0351L15.0226 20.1953L3.71643 26.109L3.66797 26.0351Z" fill="white"/>
<path d="M2.89648 25.0442L14.8213 19.8613L2.93641 25.1164L2.89648 25.0442Z" fill="white"/>
<path d="M2.19922 23.9965L14.647 19.5156L2.2313 24.0663L2.19922 23.9965Z" fill="white"/>
<path d="M1.58008 22.8975L14.4985 19.1602L1.60482 22.9645L1.58008 22.8975Z" fill="white"/>
<path d="M1.04883 21.7554L14.3816 18.7988L1.06674 21.8188L1.04883 21.7554Z" fill="white"/>
<path d="M0.605469 20.5737L14.2919 18.4297L0.617413 20.6329L0.605469 20.5737Z" fill="white"/>
<path d="M0.255859 19.3588L14.2323 18.0527L0.262346 19.4136L0.255859 19.3588Z" fill="white"/>
<path d="M0 18.1184L14.2008 17.668L0.0020497 18.1685L0 18.1184Z" fill="white"/>
<path d="M139.387 27.627C140.062 27.627 140.625 27.8453 141.075 28.2819C141.532 28.7185 141.761 29.2643 141.761 29.9192C141.761 30.5741 141.532 31.1199 141.075 31.5565C140.625 31.9931 140.062 32.2115 139.387 32.2115H137.709V34.7902H136.818V27.627H139.387ZM139.336 31.3416C139.772 31.3416 140.131 31.2086 140.41 30.9425C140.697 30.6696 140.84 30.3285 140.84 29.9192C140.84 29.5099 140.697 29.1722 140.41 28.9061C140.131 28.6332 139.772 28.4968 139.336 28.4968H137.709V31.3416H139.336Z" fill="white"/>
<path d="M132.147 34.913C131.335 34.913 130.659 34.6504 130.12 34.1251C129.588 33.5998 129.322 32.9312 129.322 32.1194V27.627H130.233V32.058C130.233 32.6447 130.41 33.1222 130.765 33.4906C131.12 33.8522 131.58 34.033 132.147 34.033C132.699 34.033 133.153 33.8522 133.508 33.4906C133.862 33.1222 134.04 32.6447 134.04 32.058V27.627H134.951V32.1194C134.951 32.9312 134.684 33.5998 134.152 34.1251C133.62 34.6504 132.952 34.913 132.147 34.913Z" fill="white"/>
<path d="M126.874 33.8588C126.165 34.5614 125.268 34.9128 124.183 34.9128C123.105 34.9128 122.211 34.5614 121.502 33.8588C120.792 33.1561 120.438 32.276 120.438 31.2186C120.438 30.1543 120.792 29.2708 121.502 28.5682C122.211 27.8587 123.105 27.5039 124.183 27.5039C125.268 27.5039 126.165 27.8552 126.874 28.5579C127.584 29.2606 127.938 30.1441 127.938 31.2083C127.938 32.2726 127.584 33.1561 126.874 33.8588ZM122.157 33.2243C122.696 33.7632 123.371 34.0327 124.183 34.0327C125.002 34.0327 125.677 33.7667 126.209 33.2345C126.748 32.6956 127.017 32.0202 127.017 31.2083C127.017 30.3965 126.748 29.7245 126.209 29.1924C125.677 28.6534 125.002 28.384 124.183 28.384C123.371 28.384 122.696 28.6534 122.157 29.1924C121.625 29.7313 121.358 30.4033 121.358 31.2083C121.358 32.0134 121.625 32.6853 122.157 33.2243Z" fill="white"/>
<path d="M118.509 34.7902L116.871 31.9863H115.234V34.7902H114.344V27.627H117.056C117.731 27.627 118.287 27.835 118.724 28.2512C119.167 28.6605 119.389 29.1824 119.389 29.8169C119.389 30.3149 119.245 30.7515 118.959 31.1267C118.672 31.4951 118.29 31.7475 117.813 31.884L119.522 34.7902H118.509ZM115.234 28.4763V31.137H117.015C117.444 31.137 117.796 31.0142 118.069 30.7686C118.342 30.5161 118.478 30.1955 118.478 29.8066C118.478 29.4178 118.342 29.1005 118.069 28.8549C117.796 28.6025 117.444 28.4763 117.015 28.4763H115.234Z" fill="white"/>
<path d="M109.064 31.2386H112.902C112.881 32.3165 112.537 33.2 111.868 33.889C111.207 34.5712 110.357 34.9123 109.32 34.9123C108.27 34.9123 107.4 34.5644 106.711 33.8685C106.029 33.1658 105.688 32.279 105.688 31.2079C105.688 30.1436 106.029 29.2636 106.711 28.5677C107.4 27.865 108.263 27.5137 109.3 27.5137C109.873 27.5137 110.405 27.6262 110.896 27.8514C111.394 28.0697 111.807 28.3767 112.134 28.7724C112.469 29.168 112.687 29.6183 112.789 30.1232H111.868C111.766 29.782 111.592 29.4819 111.346 29.2226C111.101 28.9566 110.801 28.7519 110.446 28.6086C110.098 28.4654 109.723 28.3937 109.32 28.3937C108.802 28.3937 108.335 28.5131 107.918 28.7519C107.509 28.9907 107.188 29.325 106.956 29.7548C106.724 30.1846 106.608 30.6689 106.608 31.2079C106.608 32.0402 106.858 32.719 107.356 33.2443C107.86 33.7696 108.515 34.0323 109.32 34.0323C109.757 34.0323 110.156 33.9504 110.518 33.7867C110.886 33.6229 111.19 33.3944 111.428 33.101C111.674 32.8077 111.841 32.47 111.93 32.0879H109.064V31.2386Z" fill="white"/>
<path d="M102.647 27.627V28.4661H100.467V34.7902H99.5664V28.4661H97.3867V27.627H102.647Z" fill="white"/>
<path d="M95.2969 34.7902V27.627H96.1872V34.7902H95.2969Z" fill="white"/>
<path d="M90.9508 33.9511H94.1027V34.7902H90.0605V27.627H90.9508V33.9511Z" fill="white"/>
<path d="M87.5207 33.8588C86.8112 34.5614 85.9141 34.9128 84.8294 34.9128C83.7515 34.9128 82.8577 34.5614 82.1482 33.8588C81.4387 33.1561 81.084 32.276 81.084 31.2186C81.084 30.1543 81.4387 29.2708 82.1482 28.5682C82.8577 27.8587 83.7515 27.5039 84.8294 27.5039C85.9141 27.5039 86.8112 27.8552 87.5207 28.5579C88.2302 29.2606 88.585 30.1441 88.585 31.2083C88.585 32.2726 88.2302 33.1561 87.5207 33.8588ZM82.8032 33.2243C83.3421 33.7632 84.0175 34.0327 84.8294 34.0327C85.648 34.0327 86.3234 33.7667 86.8555 33.2345C87.3945 32.6956 87.664 32.0202 87.664 31.2083C87.664 30.3965 87.3945 29.7245 86.8555 29.1924C86.3234 28.6534 85.648 28.384 84.8294 28.384C84.0175 28.384 83.3421 28.6534 82.8032 29.1924C82.271 29.7313 82.005 30.4033 82.005 31.2083C82.005 32.0134 82.271 32.6853 82.8032 33.2243Z" fill="white"/>
<path d="M76.8124 34.9021C75.7482 34.9021 74.8681 34.5542 74.1722 33.8583C73.4832 33.1624 73.1387 32.279 73.1387 31.2079C73.1387 30.1368 73.4832 29.2533 74.1722 28.5575C74.8681 27.8616 75.7482 27.5137 76.8124 27.5137C77.3582 27.5137 77.863 27.6194 78.3269 27.8309C78.7977 28.0356 79.1933 28.3289 79.514 28.711C79.8415 29.093 80.07 29.5399 80.1996 30.0515H79.2889C79.0978 29.533 78.784 29.1271 78.3474 28.8338C77.9108 28.5404 77.3991 28.3937 76.8124 28.3937C76.0074 28.3937 75.3456 28.6598 74.8272 29.1919C74.3155 29.7172 74.0597 30.3926 74.0597 31.2181C74.0597 32.0368 74.3155 32.7088 74.8272 33.2341C75.3456 33.7594 76.0074 34.022 76.8124 34.022C77.4128 34.022 77.9347 33.8685 78.3781 33.5615C78.8215 33.2477 79.1354 32.8145 79.3196 32.2619H80.2406C80.0359 33.0737 79.6231 33.7184 79.0023 34.196C78.3883 34.6667 77.6584 34.9021 76.8124 34.9021Z" fill="white"/>
<path d="M68.9938 33.9306H72.2685V34.7902H68.1035V27.627H72.1559V28.4763H68.9938V30.6969H71.8898V31.5258H68.9938V33.9306Z" fill="white"/>
<path d="M64.445 27.627L61.8048 31.9352V34.7902H60.8839V31.9352L58.2539 27.627H59.2363L61.3443 31.0858L63.4626 27.627H64.445Z" fill="white"/>
<path d="M56.6146 31.0756C56.9489 31.2188 57.2115 31.4474 57.4025 31.7612C57.5935 32.075 57.6891 32.4264 57.6891 32.8152C57.6891 33.3746 57.481 33.8454 57.0648 34.2274C56.6487 34.6026 56.1336 34.7902 55.5196 34.7902H52.6543V27.627H55.4787C56.0654 27.627 56.5463 27.8009 56.9216 28.1488C57.3036 28.4968 57.4946 28.9334 57.4946 29.4587C57.4946 29.7793 57.4128 30.0898 57.249 30.3899C57.0921 30.6901 56.8806 30.9187 56.6146 31.0756ZM56.5839 29.5815C56.5839 29.3768 56.5327 29.1926 56.4304 29.0289C56.3349 28.8652 56.2018 28.739 56.0313 28.6503C55.8607 28.5548 55.6697 28.507 55.4582 28.507H53.5344V30.656H55.4684C55.7823 30.656 56.0449 30.5537 56.2564 30.349C56.4747 30.1375 56.5839 29.8817 56.5839 29.5815ZM55.5094 33.8999C55.8641 33.8999 56.1609 33.7874 56.3997 33.5622C56.6384 33.3371 56.7578 33.054 56.7578 32.7129C56.7578 32.3786 56.6384 32.0989 56.3997 31.8738C56.1609 31.6486 55.8641 31.5361 55.5094 31.5361H53.5344V33.8999H55.5094Z" fill="white"/>
<line x1="52.6543" y1="22.0039" x2="140.665" y2="22.0039" stroke="white"/>
<path d="M211.022 17.5022H205.263C205.091 17.5022 205.006 17.3752 205.006 17.1211V0.381075C205.006 0.127025 205.091 0 205.263 0H211.022C211.194 0 211.279 0.127025 211.279 0.381075V1.36098C211.279 1.61503 211.194 1.74205 211.022 1.74205H206.528C206.406 1.74205 206.345 1.82371 206.345 1.98703V7.48539C206.345 7.64871 206.406 7.73037 206.528 7.73037H210.454C210.625 7.73037 210.711 7.85739 210.711 8.11144V9.09135C210.711 9.3454 210.625 9.47243 210.454 9.47243H206.528C206.406 9.47243 206.345 9.55408 206.345 9.7174V15.5152C206.345 15.6785 206.406 15.7602 206.528 15.7602H211.022C211.194 15.7602 211.279 15.8872 211.279 16.1412V17.1211C211.279 17.3752 211.194 17.5022 211.022 17.5022Z" fill="white"/>
<path d="M199.814 17.5022H197.613C196.769 17.5022 196.103 17.1484 195.614 16.4406C195.137 15.7329 194.898 14.744 194.898 13.4737V4.0285C194.898 2.75825 195.137 1.76927 195.614 1.06156C196.103 0.353855 196.769 0 197.613 0H199.814C200.658 0 201.318 0.353855 201.795 1.06156C202.285 1.76927 202.529 2.75825 202.529 4.0285V5.36226C202.529 5.61631 202.444 5.74334 202.272 5.74334H201.447C201.276 5.74334 201.19 5.61631 201.19 5.36226V4.11016C201.19 2.53142 200.676 1.74205 199.649 1.74205H197.76C196.745 1.74205 196.237 2.53142 196.237 4.11016V13.392C196.237 14.9708 196.745 15.7602 197.76 15.7602H199.649C200.676 15.7602 201.19 14.9708 201.19 13.392V12.1399C201.19 11.8859 201.276 11.7589 201.447 11.7589H202.272C202.444 11.7589 202.529 11.8859 202.529 12.1399V13.4737C202.529 14.744 202.285 15.7329 201.795 16.4406C201.318 17.1484 200.658 17.5022 199.814 17.5022Z" fill="white"/>
<path d="M185.488 17.5022H184.681C184.509 17.5022 184.424 17.3752 184.424 17.1211V0.381075C184.424 0.127025 184.509 0 184.681 0H185.433C185.579 0 185.677 0.0725852 185.726 0.217756L190.789 13.4193H190.862V0.381075C190.862 0.127025 190.948 0 191.119 0H191.926C192.097 0 192.183 0.127025 192.183 0.381075V17.1211C192.183 17.3752 192.097 17.5022 191.926 17.5022H191.247C191.113 17.5022 190.985 17.3843 190.862 17.1484L185.818 4.08294H185.745V17.1211C185.745 17.3752 185.659 17.5022 185.488 17.5022Z" fill="white"/>
<path d="M181.626 17.5022H175.866C175.695 17.5022 175.609 17.3752 175.609 17.1211V0.381075C175.609 0.127025 175.695 0 175.866 0H181.626C181.797 0 181.883 0.127025 181.883 0.381075V1.36098C181.883 1.61503 181.797 1.74205 181.626 1.74205H177.132C177.01 1.74205 176.948 1.82371 176.948 1.98703V7.48539C176.948 7.64871 177.01 7.73037 177.132 7.73037H181.057C181.228 7.73037 181.314 7.85739 181.314 8.11144V9.09135C181.314 9.3454 181.228 9.47243 181.057 9.47243H177.132C177.01 9.47243 176.948 9.55408 176.948 9.7174V15.5152C176.948 15.6785 177.01 15.7602 177.132 15.7602H181.626C181.797 15.7602 181.883 15.8872 181.883 16.1412V17.1211C181.883 17.3752 181.797 17.5022 181.626 17.5022Z" fill="white"/>
<path d="M166.938 15.7602H170.02C171.047 15.7602 171.561 14.9708 171.561 13.392V4.11016C171.561 2.53142 171.047 1.74205 170.02 1.74205H166.938C166.816 1.74205 166.755 1.82371 166.755 1.98703V15.5152C166.755 15.6785 166.816 15.7602 166.938 15.7602ZM165.416 17.1211V0.381075C165.416 0.127025 165.502 0 165.673 0H170.185C171.029 0 171.689 0.362928 172.166 1.08878C172.655 1.79649 172.9 2.7764 172.9 4.0285V13.4737C172.9 14.7258 172.655 15.7148 172.166 16.4406C171.689 17.1484 171.029 17.5022 170.185 17.5022H165.673C165.502 17.5022 165.416 17.3752 165.416 17.1211Z" fill="white"/>
<path d="M162.423 0.381075V17.1211C162.423 17.3752 162.337 17.5022 162.166 17.5022H161.341C161.17 17.5022 161.084 17.3752 161.084 17.1211V0.381075C161.084 0.127025 161.17 0 161.341 0H162.166C162.337 0 162.423 0.127025 162.423 0.381075Z" fill="white"/>
<path d="M150.689 13.4737V12.6027C150.689 12.3486 150.775 12.2216 150.946 12.2216H151.772C151.943 12.2216 152.028 12.3486 152.028 12.6027V13.3104C152.028 14.9436 152.573 15.7602 153.661 15.7602H155.275C156.364 15.7602 156.908 14.9254 156.908 13.256V12.3305C156.908 11.0239 156.18 10.1711 154.725 9.77184C154.113 9.60852 153.502 9.41799 152.891 9.20023C152.279 8.98247 151.759 8.56511 151.331 7.94813C150.903 7.313 150.689 6.45105 150.689 5.36226V4.0285C150.689 2.7764 150.928 1.79649 151.405 1.08878C151.894 0.362928 152.56 0 153.404 0H155.44C156.272 0 156.932 0.362928 157.421 1.08878C157.91 1.79649 158.155 2.7764 158.155 4.0285V4.70899C158.155 4.98119 158.076 5.11729 157.917 5.11729H157.073C156.914 5.11729 156.834 4.98119 156.834 4.70899V4.21904C156.834 2.56772 156.29 1.74205 155.202 1.74205H153.643C152.554 1.74205 152.01 2.60401 152.01 4.32792V5.4167C152.01 6.34217 152.42 6.97729 153.239 7.32208C153.606 7.46725 154.01 7.60334 154.45 7.73037C154.89 7.83925 155.33 7.99349 155.77 8.1931C156.223 8.37457 156.633 8.61047 156.999 8.90081C157.366 9.17301 157.66 9.59945 157.88 10.1801C158.112 10.7427 158.228 11.4322 158.228 12.2488V13.4737C158.228 14.7258 157.984 15.7148 157.495 16.4406C157.006 17.1484 156.345 17.5022 155.514 17.5022H153.404C152.573 17.5022 151.912 17.1484 151.423 16.4406C150.934 15.7148 150.689 14.7258 150.689 13.4737Z" fill="white"/>
<path d="M148.022 17.5022H142.263C142.091 17.5022 142.006 17.3752 142.006 17.1211V0.381075C142.006 0.127025 142.091 0 142.263 0H148.022C148.194 0 148.279 0.127025 148.279 0.381075V1.36098C148.279 1.61503 148.194 1.74205 148.022 1.74205H143.528C143.406 1.74205 143.345 1.82371 143.345 1.98703V7.48539C143.345 7.64871 143.406 7.73037 143.528 7.73037H147.454C147.625 7.73037 147.711 7.85739 147.711 8.11144V9.09135C147.711 9.3454 147.625 9.47243 147.454 9.47243H143.528C143.406 9.47243 143.345 9.55408 143.345 9.7174V15.5152C143.345 15.6785 143.406 15.7602 143.528 15.7602H148.022C148.194 15.7602 148.279 15.8872 148.279 16.1412V17.1211C148.279 17.3752 148.194 17.5022 148.022 17.5022Z" fill="white"/>
<path d="M133.235 17.5022H132.409C132.238 17.5022 132.152 17.3752 132.152 17.1211V0.381075C132.152 0.127025 132.238 0 132.409 0H136.628C137.472 0 138.138 0.362928 138.627 1.08878C139.117 1.79649 139.361 2.7764 139.361 4.0285V6.50549C139.361 7.52169 139.196 8.36549 138.866 9.03691C138.536 9.69018 138.077 10.1257 137.49 10.3435V10.4523L139.618 17.0667C139.728 17.357 139.667 17.5022 139.435 17.5022H138.609C138.401 17.5022 138.248 17.3752 138.151 17.1211L136.096 10.534H133.675C133.553 10.534 133.491 10.6156 133.491 10.779V17.1211C133.491 17.3752 133.406 17.5022 133.235 17.5022ZM133.675 8.87359H136.445C137.496 8.87359 138.022 8.0933 138.022 6.53271V4.11016C138.022 2.53142 137.496 1.74205 136.445 1.74205H133.675C133.553 1.74205 133.491 1.82371 133.491 1.98703V8.62862C133.491 8.79193 133.553 8.87359 133.675 8.87359Z" fill="white"/>
<path d="M117.736 17.5022H116.819C116.66 17.5022 116.605 17.3752 116.654 17.1211L120.084 0.381075C120.133 0.127025 120.249 0 120.433 0H121.753C121.937 0 122.053 0.127025 122.102 0.381075L125.532 17.1211C125.581 17.3752 125.526 17.5022 125.367 17.5022H124.431C124.297 17.5022 124.211 17.3752 124.175 17.1211L123.312 13.1471H118.873L118.011 17.1211C117.962 17.3752 117.871 17.5022 117.736 17.5022ZM121.056 2.04147L119.167 11.4595H123.019L121.13 2.04147H121.056Z" fill="white"/>
<path d="M106.091 17.5022H104.678C104.507 17.5022 104.403 17.3752 104.366 17.1211L102.018 0.381075C101.982 0.127025 102.061 0 102.257 0H103.247C103.431 0 103.529 0.127025 103.541 0.381075L105.394 15.3791H105.504L107.98 0.353854C108.017 0.117951 108.114 0 108.273 0H109.374C109.533 0 109.631 0.117951 109.667 0.353854L112.18 15.3791H112.291L114.125 0.408294C114.162 0.136098 114.265 0 114.437 0H115.427C115.623 0 115.702 0.136098 115.666 0.408294L113.299 17.1211C113.263 17.3752 113.165 17.5022 113.006 17.5022H111.593C111.422 17.5022 111.318 17.3752 111.282 17.1211L108.879 2.5042H108.805L106.384 17.1211C106.347 17.3752 106.25 17.5022 106.091 17.5022Z" fill="white"/>
<path d="M93.2128 17.5022H92.2956C92.1367 17.5022 92.0816 17.3752 92.1305 17.1211L95.5607 0.381075C95.6096 0.127025 95.7258 0 95.9092 0H97.2299C97.4133 0 97.5295 0.127025 97.5784 0.381075L101.009 17.1211C101.057 17.3752 101.002 17.5022 100.843 17.5022H99.908C99.7735 17.5022 99.6879 17.3752 99.6512 17.1211L98.7891 13.1471H94.35L93.4879 17.1211C93.439 17.3752 93.3473 17.5022 93.2128 17.5022ZM96.5329 2.04147L94.6435 11.4595H98.4956L96.6062 2.04147H96.5329Z" fill="white"/>
<path d="M84.3955 15.7602H87.4771C88.5044 15.7602 89.018 14.9708 89.018 13.392V4.11016C89.018 2.53142 88.5044 1.74205 87.4771 1.74205H84.3955C84.2732 1.74205 84.2121 1.82371 84.2121 1.98703V15.5152C84.2121 15.6785 84.2732 15.7602 84.3955 15.7602ZM82.873 17.1211V0.381075C82.873 0.127025 82.9586 0 83.1298 0H87.6422C88.486 0 89.1464 0.362928 89.6233 1.08878C90.1124 1.79649 90.357 2.7764 90.357 4.0285V13.4737C90.357 14.7258 90.1124 15.7148 89.6233 16.4406C89.1464 17.1484 88.486 17.5022 87.6422 17.5022H83.1298C82.9586 17.5022 82.873 17.3752 82.873 17.1211Z" fill="white"/>
<path d="M73.2787 17.5022H72.4716C72.3004 17.5022 72.2148 17.3752 72.2148 17.1211V0.381075C72.2148 0.127025 72.3004 0 72.4716 0H73.2237C73.3705 0 73.4683 0.0725852 73.5172 0.217756L78.5799 13.4193H78.6532V0.381075C78.6532 0.127025 78.7388 0 78.91 0H79.7171C79.8883 0 79.9739 0.127025 79.9739 0.381075V17.1211C79.9739 17.3752 79.8883 17.5022 79.7171 17.5022H79.0384C78.9039 17.5022 78.7755 17.3843 78.6532 17.1484L73.6089 4.08294H73.5355V17.1211C73.5355 17.3752 73.4499 17.5022 73.2787 17.5022Z" fill="white"/>
<path d="M62.4569 17.5022H61.5398C61.3808 17.5022 61.3258 17.3752 61.3747 17.1211L64.8048 0.381075C64.8537 0.127025 64.9699 0 65.1533 0H66.474C66.6575 0 66.7736 0.127025 66.8226 0.381075L70.2527 17.1211C70.3016 17.3752 70.2466 17.5022 70.0876 17.5022H69.1521C69.0176 17.5022 68.932 17.3752 68.8953 17.1211L68.0332 13.1471H63.5942L62.7321 17.1211C62.6832 17.3752 62.5914 17.5022 62.4569 17.5022ZM65.777 2.04147L63.8877 11.4595H67.7397L65.8504 2.04147H65.777Z" fill="white"/>
<path d="M53.7365 17.5022H52.9111C52.7399 17.5022 52.6543 17.3752 52.6543 17.1211V0.381075C52.6543 0.127025 52.7399 0 52.9111 0H57.2034C58.0471 0 58.7075 0.362928 59.1844 1.08878C59.6613 1.79649 59.8998 2.7764 59.8998 4.0285V7.04988C59.8998 8.32013 59.6613 9.30911 59.1844 10.0168C58.7075 10.7245 58.0471 11.0784 57.2034 11.0784H54.1768C54.0545 11.0784 53.9933 11.16 53.9933 11.3234V17.1211C53.9933 17.3752 53.9077 17.5022 53.7365 17.5022ZM54.1768 9.30911H57.0199C58.0471 9.30911 58.5607 8.52881 58.5607 6.96822V4.11016C58.5607 2.53142 58.0471 1.74205 57.0199 1.74205H54.1768C54.0545 1.74205 53.9933 1.82371 53.9933 1.98703V9.06413C53.9933 9.22745 54.0545 9.30911 54.1768 9.30911Z" fill="white"/>
</svg>
